<svg width="36" height="20" viewBox="0 0 36 20" fill="none" xmlns="http://www.w3.org/2000/svg">
<path d="M0.301549 10.4847C0.325549 10.4082 0.360049 10.3317 0.372049 10.2522C0.493549 9.47674 0.802549 8.77624 1.36205 8.23624C2.45555 7.18024 3.52505 6.08224 4.71755 5.14474C7.93355 2.61424 11.613 1.15024 15.693 0.793241C17.253 0.656741 22.782 0.656741 22.9305 0.656741C26.1405 0.656741 29.352 0.653741 32.562 0.658241C34.4535 0.659741 35.682 1.88824 35.694 3.78124C35.6985 4.44874 35.6955 5.11624 35.6955 5.78524C35.6955 7.75324 35.7015 9.72274 35.694 11.6907C35.688 13.2792 34.884 14.3097 33.348 14.7252C33.282 14.7432 33.219 14.7687 33.1575 14.7897C33.4965 16.8912 33.048 18.2232 31.6125 19.0092C29.763 20.0217 28.173 19.5402 26.8425 17.9727C25.9815 19.0917 24.8835 19.6602 23.4735 19.4832C22.05 19.3047 21.1275 18.4632 20.571 17.1582C19.155 17.1582 17.751 17.1582 16.3455 17.1582C16.242 17.1582 16.137 17.1687 16.0245 17.1747C15.4635 18.4647 14.5455 19.3092 13.119 19.4847C11.7015 19.6587 10.602 19.0737 9.74705 17.9697C8.38505 19.7262 6.53405 19.7622 5.31605 19.1967C4.61405 18.8697 4.06955 18.3657 3.70055 17.6877C3.19355 16.7532 3.13805 15.7737 3.48905 14.7552C3.34805 14.7102 3.23855 14.6742 3.13055 14.6397C1.68605 14.1732 0.781549 13.2012 0.408049 11.7312C0.373549 11.5977 0.336049 11.4642 0.300049 11.3307C0.301549 11.0472 0.301549 10.7652 0.301549 10.4847ZM13.1805 3.03274C13.989 3.03724 14.436 3.48424 14.4435 4.29724C14.4495 5.01274 14.448 5.72674 14.4435 6.44224C14.4375 7.26274 13.977 7.72474 13.1535 7.72624C10.0605 7.72924 6.96605 7.73074 3.87305 7.72174C3.59105 7.72024 3.38855 7.79974 3.19955 8.00674C2.89205 8.34424 2.54855 8.64874 2.23955 8.98474C1.44305 9.85624 1.24655 10.8657 1.69655 11.9472C2.16155 13.0632 3.05855 13.6347 4.25855 13.6437C6.83705 13.6647 9.41405 13.6512 11.9925 13.6512C18.8475 13.6512 25.7025 13.6497 32.5575 13.6542C33.108 13.6542 33.6015 13.5282 34.002 13.1352C34.3515 12.7902 34.5405 12.3687 34.542 11.8782C34.5465 9.12424 34.5525 6.37024 34.5405 3.61774C34.536 2.58124 33.768 1.82824 32.7255 1.82824C27.4995 1.82524 22.2735 1.80724 17.0475 1.84624C15.1065 1.86124 13.209 2.24674 11.3685 2.87524C11.3145 2.89174 11.259 2.91274 11.2065 2.93674C11.19 2.94574 11.1795 2.96974 11.1345 3.03124C11.8455 3.03124 12.513 3.02824 13.1805 3.03274ZM13.2825 4.20574C13.155 4.19524 13.032 4.17724 12.909 4.17724C11.481 4.17424 10.0545 4.17274 8.62655 4.18024C8.46755 4.18024 8.28005 4.19074 8.15555 4.27174C7.09055 4.96924 6.03605 5.68324 4.98005 6.39274C4.94705 6.41674 4.92455 6.46024 4.86305 6.53074C7.68905 6.53074 10.473 6.53074 13.281 6.53074C13.2825 5.75824 13.2825 5.00374 13.2825 4.20574ZM25.035 16.3047C24.9135 16.7907 24.435 17.1567 23.916 17.1582C23.376 17.1612 22.9275 16.8147 22.782 16.2837C22.6275 15.7182 22.872 15.2532 23.6115 14.8137C23.0025 14.8137 22.476 14.8062 21.951 14.8242C21.8805 14.8272 21.7875 14.9502 21.75 15.0357C21.3645 15.9387 21.489 16.7787 22.1085 17.5332C22.7085 18.2652 23.7195 18.5562 24.621 18.2532C25.545 17.9412 26.13 17.2947 26.235 16.3227C26.28 15.8997 26.1405 15.4527 26.0475 15.0252C26.028 14.9337 25.8525 14.8182 25.743 14.8137C25.254 14.7912 24.765 14.8032 24.177 14.8032C24.9405 15.2457 25.1835 15.7092 25.035 16.3047ZM13.824 16.2822C13.6815 16.8102 13.2285 17.1612 12.69 17.1582C12.1695 17.1552 11.697 16.7952 11.571 16.3047C11.418 15.7107 11.661 15.2487 12.411 14.8062C11.8155 14.8062 11.2995 14.7927 10.785 14.8182C10.689 14.8227 10.56 14.9772 10.5165 15.0897C10.173 15.9702 10.2765 16.8027 10.8945 17.5242C11.5185 18.2532 12.3315 18.5247 13.2675 18.2892C14.184 18.0582 14.7615 17.4522 15.003 16.5357C15.1395 16.0167 15.0765 15.5097 14.8485 15.0312C14.802 14.9337 14.673 14.8182 14.5785 14.8137C14.079 14.7927 13.5795 14.8032 13.0785 14.8032C13.7265 15.2472 13.9755 15.7182 13.824 16.2822ZM30.9255 16.3362C30.78 16.8267 30.3045 17.1687 29.784 17.1567C29.2605 17.1462 28.8255 16.7997 28.6845 16.2822C28.53 15.7152 28.785 15.2322 29.532 14.8092C28.9125 14.8092 28.3875 14.7987 27.864 14.8197C27.786 14.8227 27.6855 14.9607 27.645 15.0582C27.2595 15.9792 27.405 16.8267 28.0515 17.5767C28.6695 18.2952 29.688 18.5577 30.582 18.2292C31.512 17.8872 32.046 17.2122 32.163 16.2237C32.1825 16.0617 32.1765 15.8952 32.1615 15.7332C32.0925 14.9427 31.935 14.7987 31.161 14.7987C30.8355 14.7987 30.5085 14.7987 30.081 14.7987C30.855 15.2562 31.101 15.7422 30.9255 16.3362ZM4.89305 14.8197C4.78955 14.8257 4.65605 14.9922 4.60355 15.1137C4.07105 16.3737 4.75955 17.8332 6.07505 18.2547C7.36805 18.6687 8.76755 17.8932 9.09305 16.5822C9.22505 16.0497 9.18605 15.5322 8.94755 15.0432C8.89505 14.9352 8.73305 14.8197 8.61605 14.8137C8.13755 14.7852 7.65755 14.8002 7.14905 14.8347C7.54805 15.0312 7.83905 15.3147 7.93205 15.7467C8.02655 16.1832 7.89905 16.5612 7.57055 16.8612C7.07705 17.3127 6.30305 17.2452 5.88455 16.7217C5.40605 16.1262 5.59955 15.4497 6.46355 14.8062C5.91305 14.8047 5.40155 14.7882 4.89305 14.8197ZM16.2555 15.9837C17.613 15.9837 18.9645 15.9837 20.3475 15.9837C20.412 15.6117 20.475 15.2382 20.5455 14.8302C19.0515 14.8302 17.5725 14.8302 16.0605 14.8302C16.1265 15.2277 16.188 15.5922 16.2555 15.9837Z" fill="#0A3761" fill-opacity="0.7"/>
<path d="M32.0654 3.03298C32.8679 3.03448 33.3329 3.49798 33.3389 4.29298C33.3434 4.99648 33.3419 5.69848 33.3404 6.40198C33.3389 7.25548 32.8724 7.72498 32.0099 7.72498C26.9954 7.72648 21.9824 7.72648 16.9679 7.72498C16.1324 7.72498 15.6629 7.25248 15.6554 6.41698C15.6494 5.73748 15.6524 5.05798 15.6539 4.37848C15.6569 3.48598 16.1024 3.03298 16.9904 3.03298C19.4864 3.02998 21.9809 3.03148 24.4769 3.03298C27.0044 3.03148 29.5349 3.02998 32.0654 3.03298ZM25.1009 4.19698C25.1009 4.98148 25.1009 5.74498 25.1009 6.53398C26.0759 6.53398 27.0389 6.53398 28.0304 6.53398C28.0304 5.76448 28.0304 5.00098 28.0304 4.19698C27.0374 4.19698 26.0849 4.19698 25.1009 4.19698ZM19.7594 6.54448C19.7594 5.76898 19.7594 5.00548 19.7594 4.20748C18.7979 4.20748 17.8364 4.20748 16.8449 4.20748C16.8449 4.97698 16.8449 5.74048 16.8449 6.54448C17.8229 6.54448 18.7769 6.54448 19.7594 6.54448ZM29.2259 4.20148C29.2259 4.98298 29.2259 5.73748 29.2259 6.52648C30.1919 6.52648 31.1549 6.52648 32.1479 6.52648C32.1479 5.76298 32.1479 4.99948 32.1479 4.20148C31.1579 4.20148 30.2039 4.20148 29.2259 4.20148ZM23.8994 6.54298C23.8994 5.76148 23.8994 4.99648 23.8994 4.20448C22.9184 4.20448 21.9554 4.20448 20.9714 4.20448C20.9714 4.98748 20.9714 5.74498 20.9714 6.54298C21.9614 6.54298 22.9169 6.54298 23.8994 6.54298Z" fill="#0A3761" fill-opacity="0.7"/>
<path d="M4.2825 11.2242C4.2825 10.9047 4.2645 10.6017 4.2945 10.3017C4.3035 10.2147 4.437 10.1067 4.536 10.0707C4.8795 9.94173 5.0595 9.69573 4.998 9.38973C4.938 9.09273 4.6965 8.92623 4.341 8.93973C3.7005 8.96223 3.156 9.50823 3.126 10.1712C3.111 10.4982 3.1155 10.8267 3.1245 11.1552C3.1425 11.7942 3.6 12.3177 4.227 12.4287C4.605 12.4947 4.923 12.3132 4.995 11.9892C5.0655 11.6757 4.8825 11.4117 4.509 11.2947C4.4535 11.2752 4.3965 11.2587 4.2825 11.2242Z" fill="#0A3761" fill-opacity="0.7"/>
</svg>
