<svg width="37" height="36" viewBox="0 0 37 36" fill="#F0573B" xmlns="http://www.w3.org/2000/svg">
<path d="M0 10.9918C0.024 10.9393 0.057 10.8898 0.069 10.8358C0.414 9.32379 1.563 8.40279 3.1215 8.40129C6.7185 8.39829 10.3155 8.39979 13.9125 8.39979C20.193 8.39979 26.475 8.39979 32.7555 8.40129C34.74 8.40129 35.988 9.64629 35.9895 11.6233C35.991 14.2483 35.952 16.8733 36.003 19.4983C36.039 21.3298 34.7565 22.7653 32.9565 22.7878C32.922 22.7878 32.889 22.7998 32.8305 22.8118C33.276 24.9133 32.664 26.5558 30.585 27.3493C28.9155 27.9853 27.5175 27.3838 26.3955 25.9948C25.53 27.1303 24.399 27.7258 22.9635 27.5443C21.537 27.3643 20.5815 26.5348 20.016 25.2058C18.489 25.2058 16.9575 25.2058 15.3945 25.2058C14.838 26.4928 13.896 27.3568 12.453 27.5413C11.0235 27.7243 9.8985 27.1468 9.018 26.0128C7.6215 27.6223 5.9805 28.1038 4.083 27.0058C2.685 26.1973 2.2305 24.7978 2.5995 22.7728C2.5185 22.7458 2.436 22.7128 2.3505 22.6903C1.1175 22.3603 0.342 21.5893 0.069 20.3308C0.054 20.2633 0.024 20.2003 0.0015 20.1343C0 17.0863 0 14.0383 0 10.9918ZM17.997 9.57879C13.053 9.57879 8.109 9.57729 3.165 9.58029C1.9335 9.58029 1.191 10.3183 1.1895 11.5438C1.1865 14.2378 1.1865 16.9333 1.1895 19.6273C1.191 20.8663 1.9425 21.6103 3.189 21.6103C13.053 21.6103 22.917 21.6118 32.7825 21.6103C34.0755 21.6103 34.812 20.8738 34.8135 19.5868C34.815 16.9153 34.815 14.2453 34.812 11.5738C34.8105 10.3243 34.0695 9.58029 32.829 9.58029C27.8835 9.57879 22.941 9.57879 17.997 9.57879ZM12.405 22.7863C13.0455 23.2243 13.2795 23.6623 13.1505 24.2488C13.038 24.7573 12.615 25.1263 12.0885 25.1758C11.589 25.2223 11.0505 24.9178 10.9125 24.4168C10.8345 24.1333 10.8345 23.7733 10.9425 23.5063C11.055 23.2318 11.343 23.0293 11.5635 22.7833C11.1165 22.7833 10.6515 22.7968 10.188 22.7773C9.9555 22.7683 9.852 22.8748 9.774 23.0668C9.5535 23.6098 9.5295 24.1603 9.7005 24.7153C10.1055 26.0188 11.5515 26.7253 12.8295 26.2513C14.1075 25.7758 14.751 24.3283 14.2215 23.0923C14.169 22.9723 14.0385 22.8058 13.9365 22.7998C13.428 22.7698 12.9165 22.7863 12.405 22.7863ZM5.6625 22.7848C5.124 22.7848 4.65 22.7953 4.1775 22.7803C3.9645 22.7743 3.8595 22.8658 3.7845 23.0488C3.5895 23.5288 3.519 24.0178 3.6495 24.5248C3.888 25.4533 4.4685 26.0758 5.3925 26.3173C6.3495 26.5678 7.188 26.2963 7.8285 25.5448C8.451 24.8158 8.5665 23.9743 8.2185 23.0803C8.1765 22.9708 8.073 22.8088 7.9905 22.8058C7.464 22.7803 6.936 22.7923 6.327 22.7923C7.065 23.2693 7.299 23.7418 7.137 24.3163C6.999 24.8068 6.531 25.1668 6.018 25.1803C5.5155 25.1938 5.0175 24.8383 4.8675 24.3598C4.686 23.7658 4.9005 23.3143 5.6625 22.7848ZM29.0835 22.7848C28.5465 22.7848 28.1025 22.8058 27.66 22.7773C27.369 22.7578 27.2415 22.8853 27.147 23.1313C26.6625 24.3973 27.3195 25.8118 28.611 26.2648C29.8875 26.7118 31.3125 26.0023 31.698 24.7093C31.896 24.0448 31.845 23.3983 31.461 22.7848C31.1655 22.7848 30.885 22.7848 30.606 22.7848C30.333 22.7848 30.06 22.7848 29.7105 22.7848C30.4635 23.2573 30.7095 23.7433 30.5385 24.3148C30.3885 24.8173 29.934 25.1683 29.4225 25.1803C28.8975 25.1923 28.4205 24.8383 28.266 24.3253C28.089 23.7328 28.314 23.2783 29.0835 22.7848ZM21.33 22.7998C21.024 23.2648 20.9625 23.7673 21.012 24.2923C21.096 25.1863 21.7725 26.0143 22.668 26.2828C23.6625 26.5813 24.5235 26.3308 25.215 25.5643C25.851 24.8608 25.9935 23.8078 25.5885 23.0068C25.545 22.9228 25.4565 22.8028 25.3845 22.7998C24.855 22.7818 24.3255 22.7908 23.7225 22.7908C24.603 23.3548 24.8145 24.0763 24.345 24.7033C23.9385 25.2463 23.145 25.3348 22.6335 24.8923C22.2855 24.5908 22.1595 24.2023 22.2375 23.7538C22.3155 23.3158 22.623 23.0443 23.088 22.7998C22.4235 22.7998 21.876 22.7998 21.33 22.7998ZM15.6255 23.9803C17.0235 23.9803 18.4005 23.9803 19.782 23.9803C19.848 23.5813 19.9095 23.2063 19.9725 22.8178C18.4425 22.8178 16.932 22.8178 15.4185 22.8178C15.489 23.2198 15.555 23.5858 15.6255 23.9803Z" fill="#F0573B"/>
<path d="M17.9999 15.5699C13.3004 15.5699 8.60244 15.5699 3.90294 15.5699C2.80494 15.5699 2.40444 15.1634 2.40594 14.0609C2.40594 13.4399 2.40444 12.8189 2.40594 12.1979C2.40894 11.2574 2.86794 10.7984 3.81294 10.7984C11.6639 10.7969 19.5149 10.7984 27.3659 10.7969C28.9709 10.7969 30.5759 10.7969 32.1824 10.7969C33.1259 10.7984 33.5909 11.2574 33.5924 12.1934C33.5939 12.8384 33.5939 13.4819 33.5939 14.1269C33.5924 15.1319 33.1619 15.5684 32.1674 15.5684C27.4454 15.5714 22.7234 15.5699 17.9999 15.5699ZM32.3984 11.9954C31.1864 11.9954 30.0119 11.9954 28.8104 11.9954C28.8104 12.7934 28.8104 13.5704 28.8104 14.3684C30.0134 14.3684 31.1969 14.3684 32.3984 14.3684C32.3984 13.5704 32.3984 12.8039 32.3984 11.9954ZM3.61494 11.9954C3.61494 12.8159 3.61494 13.5914 3.61494 14.3714C4.62294 14.3714 5.59794 14.3714 6.58944 14.3714C6.58944 13.5674 6.58944 12.7919 6.58944 11.9954C5.58894 11.9954 4.61244 11.9954 3.61494 11.9954ZM10.7939 14.3729C10.7939 13.5704 10.7939 12.7934 10.7939 11.9969C9.78894 11.9969 8.81244 11.9969 7.81644 11.9969C7.81644 12.7979 7.81644 13.5749 7.81644 14.3729C8.81544 14.3729 9.79194 14.3729 10.7939 14.3729ZM16.2254 11.9924C16.2254 12.8129 16.2254 13.5944 16.2254 14.3699C17.2394 14.3699 18.2054 14.3699 19.1804 14.3699C19.1804 13.5644 19.1804 12.7874 19.1804 11.9924C18.1844 11.9924 17.2154 11.9924 16.2254 11.9924ZM23.3834 14.3744C23.3834 13.5479 23.3834 12.7739 23.3834 12.0014C22.3724 12.0014 21.3974 12.0014 20.4119 12.0014C20.4119 12.8069 20.4119 13.5824 20.4119 14.3744C21.4154 14.3744 22.3904 14.3744 23.3834 14.3744ZM27.5894 14.3789C27.5894 13.5584 27.5894 12.7829 27.5894 12.0014C26.5814 12.0014 25.6034 12.0014 24.6224 12.0014C24.6224 12.8069 24.6224 13.5854 24.6224 14.3789C25.6169 14.3789 26.5844 14.3789 27.5894 14.3789ZM14.9849 11.9999C13.9694 11.9999 13.0034 11.9999 12.0209 11.9999C12.0209 12.8024 12.0209 13.5794 12.0209 14.3654C13.0244 14.3654 13.9994 14.3654 14.9849 14.3654C14.9849 13.5629 14.9849 12.7934 14.9849 11.9999Z" fill="#F0573B"/>
</svg>
