<?xml version="1.0" encoding="utf-8"?>
<!-- Generator: Adobe Illustrator 24.0.1, SVG Export Plug-In . SVG Version: 6.00 Build 0)  -->
<svg version="1.1" xmlns="http://www.w3.org/2000/svg" xmlns:xlink="http://www.w3.org/1999/xlink" x="0px" y="0px"
	 viewBox="0 0 50 50" style="enable-background:new 0 0 50 50;" xml:space="preserve">
<style type="text/css">
	.st0{display:none;}
	.st1{display:inline;fill:#8AB0D4;}
	.st2{display:inline;fill:#8AB1D4;}
	.st3{fill:#8AB1D5;}
	.st4{fill:#8AB0D4;}
</style>
<g id="Layer_1" class="st0">
	<g>
		<path class="st1" d="M4.4,5.7c10.2,0,20.4,0,30.6,0c0,0,0,0,0.1,0c0.4,0.2,0.6,0.5,0.5,0.8c-0.1,0.4-0.4,0.6-0.8,0.6
			c-0.7,0-1.4,0-2.1,0c-0.3,0-0.3,0-0.3,0.3c0,10.7,0,21.5,0,32.2c0,0.1,0,0.1,0,0.2c0,0.1,0,0.1,0.1,0.1c0.8,0,1.6,0,2.4,0
			c0.1,0,0.1,0,0.1-0.1c0-0.1,0-0.1,0-0.2c0-6.1,0-12.1,0-18.2c0-0.3,0-0.3,0.3-0.3c3.6,0,7.2,0,10.8,0c0.3,0,0.3,0,0.3,0.3
			c0,6.5,0,13.1,0,19.6c0,0.4,0,0.3-0.3,0.3c-14.2,0-28.3,0-42.5,0c-0.1,0-0.2,0-0.3,0c-0.4,0-0.7-0.4-0.7-0.8C2.7,40.2,3,40,3.4,40
			c1.1,0,2.3,0,3.4,0c0.3,0,0.3,0,0.3-0.3c0-3.1,0-6.2,0-9.3c0-7.6,0-15.3,0-22.9c0-0.3,0-0.3-0.3-0.3c-0.7,0-1.5,0-2.2,0
			c-0.4,0-0.7-0.3-0.7-0.7C3.9,6.1,4.1,5.9,4.4,5.7z M16.4,36.3c0,1.2,0,2.3,0,3.5c0,0.1,0,0.2,0.2,0.2c2.1,0,4.3,0,6.4,0
			c0.1,0,0.2-0.1,0.2-0.2c0-2.3,0-4.6,0-6.9c0-0.9-0.7-1.5-1.6-1.5c-1.2,0-2.4,0-3.6,0c-0.9,0-1.6,0.6-1.6,1.6
			C16.4,34,16.4,35.2,16.4,36.3z M17.6,13.4c0,0.8,0,1.6,0,2.4c0,0.2,0,0.2,0.2,0.2c1.3,0,2.6,0,3.9,0c0.2,0,0.2-0.1,0.2-0.2
			c0-1.6,0-3.2,0-4.8c0-0.2,0-0.2-0.2-0.2c-1.3,0-2.6,0-3.9,0c-0.2,0-0.2,0.1-0.2,0.2C17.6,11.8,17.6,12.6,17.6,13.4z M29.9,13.4
			c0-0.8,0-1.6,0-2.5c0-0.1,0-0.2-0.2-0.2c-1.3,0-2.7,0-4,0c-0.2,0-0.2,0.1-0.2,0.2c0,1.6,0,3.3,0,4.9c0,0.2,0.1,0.2,0.2,0.2
			c1.3,0,2.6,0,3.9,0c0.2,0,0.2-0.1,0.2-0.2C29.9,15,29.9,14.2,29.9,13.4z M17.6,21.6c0,0.8,0,1.6,0,2.5c0,0.2,0.1,0.2,0.2,0.2
			c1.3,0,2.6,0,3.9,0c0.2,0,0.2-0.1,0.2-0.2c0-1.6,0-3.2,0-4.9c0-0.2-0.1-0.2-0.2-0.2c-1.3,0-2.6,0-3.9,0c-0.2,0-0.2,0.1-0.2,0.2
			C17.6,20,17.6,20.8,17.6,21.6z M38.5,33c0,0.8,0,1.6,0,2.4c0,0.2,0,0.2,0.2,0.2c1.3,0,2.6,0,3.9,0c0.2,0,0.2-0.1,0.2-0.2
			c0-1.6,0-3.2,0-4.9c0-0.2,0-0.2-0.2-0.2c-1.3,0-2.6,0-3.9,0c-0.2,0-0.2,0-0.2,0.2C38.5,31.3,38.5,32.1,38.5,33z M9.3,21.7
			c0,0.8,0,1.6,0,2.4c0,0.2,0,0.2,0.2,0.2c1.3,0,2.6,0,3.9,0c0.2,0,0.2,0,0.2-0.2c0-1.6,0-3.2,0-4.9c0-0.2,0-0.2-0.2-0.2
			c-1.3,0-2.6,0-4,0c-0.2,0-0.2,0.1-0.2,0.2C9.3,20,9.3,20.9,9.3,21.7z M38.5,25.9c0,0.8,0,1.6,0,2.4c0,0.2,0,0.2,0.2,0.2
			c1.3,0,2.6,0,4,0c0.2,0,0.2,0,0.2-0.2c0-1.6,0-3.3,0-4.9c0-0.2-0.1-0.2-0.2-0.2c-1.3,0-2.6,0-3.9,0c-0.2,0-0.2,0-0.2,0.2
			C38.5,24.3,38.5,25.1,38.5,25.9z M29.9,30.3c0-0.8,0-1.6,0-2.4c0-0.2,0-0.3-0.2-0.3c-1.3,0-2.6,0-3.9,0c-0.2,0-0.2,0-0.2,0.2
			c0,1.6,0,3.2,0,4.8c0,0.2,0,0.2,0.2,0.2c1.3,0,2.6,0,3.9,0c0.2,0,0.2-0.1,0.2-0.2C29.9,31.9,29.9,31.1,29.9,30.3z M9.4,13.4
			c0,0.8,0,1.6,0,2.4c0,0.2,0,0.2,0.2,0.2c1.3,0,2.6,0,3.9,0c0.2,0,0.2-0.1,0.2-0.2c0-1.6,0-3.2,0-4.8c0-0.2,0-0.2-0.2-0.2
			c-1.3,0-2.6,0-3.9,0c-0.2,0-0.2,0.1-0.2,0.2C9.4,11.8,9.4,12.6,9.4,13.4z M25.6,21.6c0,0.8,0,1.6,0,2.4c0,0.2,0,0.2,0.2,0.2
			c1.3,0,2.6,0,3.9,0c0.2,0,0.2-0.1,0.2-0.2c0-1.6,0-3.2,0-4.8c0-0.2,0-0.2-0.2-0.2c-1.3,0-2.6,0-3.9,0c-0.2,0-0.2,0.1-0.2,0.2
			C25.6,20,25.6,20.8,25.6,21.6z M9.4,30.3c0,0.8,0,1.6,0,2.4c0,0.2,0,0.2,0.2,0.2c1.3,0,2.6,0,3.9,0c0.2,0,0.2-0.1,0.2-0.2
			c0-1.6,0-3.2,0-4.9c0-0.2,0-0.2-0.2-0.2c-1.3,0-2.6,0-3.9,0c-0.2,0-0.2,0.1-0.2,0.2C9.4,28.7,9.4,29.5,9.4,30.3z"/>
		<path class="st2" d="M0.6,42.8c0.1,0,0.2,0,0.3,0c16.1,0,32.2,0,48.3,0c0.1,0,0.1,0,0.2,0c0.2,0,0.2,0,0.2,0.2c0,0.4,0,0.7,0,1.1
			c0,0.1,0,0.2-0.2,0.2c-0.1,0-0.1,0-0.2,0c-16.2,0-32.3,0-48.5,0c-0.1,0-0.2,0-0.3,0C0.6,43.8,0.6,43.3,0.6,42.8z"/>
	</g>
	<path class="st3" d="M35,35.7c0,1-0.1,2-0.1,3c-0.1,0.1-0.1,0.1,0,0.2c0,1.2-0.1,2.5-0.1,3.7c0,0.3,0,0.6,0,0.8
		c-0.1,0.1-0.1,0.1,0,0.2c0,1.1-0.1,2.2-0.1,3.2c0,0.2,0,0.5,0,0.7c-0.1,0.4-0.4,0.6-0.8,0.6c-0.4,0-0.7-0.2-0.8-0.6
		c-0.3-1.2-0.7-2.3-1-3.5c-0.4-1.5-0.9-3-1.3-4.5c-0.6-2-1.2-4.1-1.8-6.1c-0.6-2.1-1.2-4.1-1.8-6.2c-0.1-0.4-0.2-0.9-0.3-1.3
		c-0.1-0.3-0.1-0.3-0.3-0.2c-0.7,0.3-1.4,0.7-2.1,1c-1.9,1-3.9,1.9-5.8,2.8c-1.4,0.6-2.7,1.2-4.1,1.8c-0.7,0.3-1.4,0.6-2.1,0.9
		c-0.2,0.1-0.2,0.1-0.2,0.3c0,0.2,0,0.4,0,0.7c-0.1,0-0.1,0.1,0,0.1c-0.1,0.7-0.1,1.5-0.2,2.2c0,0.3,0,0.6-0.1,0.9
		c0,0.4,0,0.7-0.1,1.1c-0.1,0-0.1,0.1,0,0.1c-0.1,0.7-0.1,1.4-0.2,2.1c0,0.4-0.1,0.8-0.1,1.2c-0.1,0-0.1,0.1,0,0.1
		c0,0.5-0.1,1-0.1,1.6c-0.1,0-0.1,0.1,0,0.1c0,0.2-0.2,0.3-0.3,0.3c-0.2,0-0.3-0.1-0.3-0.3c-0.5-1.4-1.1-2.7-1.6-4.1
		c-0.5-1.2-1-2.4-1.5-3.7c-0.1-0.1-0.1-0.3-0.2-0.4c-0.1-0.2-0.1-0.2-0.3-0.1c-0.7,0.3-1.5,0.6-2.2,0.9c-0.3,0.1-0.6,0.2-0.9,0.3
		c0,0,0-0.1,0-0.1c0.8-0.7,1.6-1.3,2.5-2c0.2-0.2,0.2-0.2,0-0.3c-1-1.3-2.1-2.7-3.1-4c-0.8-1-1.5-1.9-2.3-2.9C1,26.2,1,26.1,1,26
		c0-0.2,0.2-0.3,0.3-0.2c0.1,0,0.3,0.1,0.4,0.1c1.3,0.7,2.7,1.3,4,2c1.6,0.8,3.2,1.5,4.8,2.3c0.2,0.1,0.3,0.1,0.4,0
		c2.1-1.6,4.2-3.1,6.3-4.7c1.4-1,2.8-2,4.2-2.9c0.7-0.5,1.5-1,2.2-1.5c0,0,0.1-0.1,0.1-0.1c0.1-0.1,0.1-0.1,0-0.2
		c-0.1-0.1-0.2-0.2-0.2-0.2c-0.6-0.5-1.1-1.1-1.6-1.6c0,0-0.1-0.1-0.1-0.1c-0.9-0.9-1.8-1.8-2.6-2.7c-1.1-1.1-2.2-2.2-3.2-3.4
		c-1-1-2-2-3-3.1c-1-1.1-2.1-2.2-3.1-3.2C9.3,5.8,8.7,5.2,8.1,4.5C7.9,4.3,7.8,4,7.9,3.7C8,3.4,8.3,3.2,8.6,3.2c0.2,0,0.4,0,0.6,0.1
		c1.4,0.7,2.7,1.4,4.1,2.2c1.8,1,3.6,1.9,5.5,2.9c1.2,0.6,2.3,1.2,3.5,1.8c0.3,0.1,0.5,0.1,0.7,0c1.1-0.6,2.1-1.3,3.2-1.9
		c0.6-0.3,1.2-0.2,1.5,0.4c0.1,0.1,0.1,0.2,0.2,0.3c0.4,0.6,0.1,1.3-0.4,1.6c-0.5,0.3-0.9,0.5-1.4,0.8c-0.3,0.1-0.5,0.3-0.8,0.5
		c0.3,0.2,0.6,0.4,0.9,0.5c1.4,0.7,2.7,1.4,4.1,2.1c0.6,0.3,1.2,0.6,1.8,1c0.1,0.1,0.3,0.1,0.4,0c1.6-1,3.2-2,4.8-2.9
		c1.7-1,3.5-1.8,5.4-2.5c0.9-0.3,1.9-0.6,2.9-0.7c0.5-0.1,1.1-0.1,1.6,0c0.3,0.1,0.5,0.1,0.8,0.3c0.3,0.2,0.5,0.5,0.5,0.9
		c0,0.4-0.1,0.8-0.3,1.2c-0.3,0.6-0.8,1.2-1.3,1.7c-1.1,1.2-2.4,2.2-3.7,3.2c-1.4,1-2.8,1.8-4.3,2.7c-1.1,0.6-2.1,1.2-3.2,1.7
		c-0.2,0.1-0.3,0.2-0.2,0.4c-0.1,0-0.1,0.1,0,0.1c0,0.5,0,1-0.1,1.5c-0.1,0-0.1,0.1,0,0.1c0,0.7,0,1.4-0.1,2.1c0,1-0.1,2-0.1,3
		c0,0.3-0.1,0.5,0,0.8c0,0.1,0,0.1,0.1,0c0.5-0.2,0.9-0.5,1.4-0.8c0.3-0.1,0.5-0.3,0.8-0.4c0.6-0.3,1.2-0.1,1.5,0.4
		c0.2,0.3,0.3,0.5,0.3,0.9c0,0.4-0.2,0.7-0.5,0.9c-0.5,0.3-1,0.6-1.5,0.9c-0.7,0.4-1.3,0.8-2,1.2c-0.1,0.1-0.1,0.1-0.1,0.2
		c0,0.5-0.1,0.9-0.1,1.4c0,0.6-0.1,1.2-0.1,1.8C35,35.6,35,35.6,35,35.7z"/>
	<g>
		<path class="st1" d="M28.9,47.6c-0.8,0-1.6,0-2.4,0c-0.7,0-1.3,0-2,0c-0.7,0-1.4,0-2.1,0c-0.7,0-1.4,0-2.1,0c-0.7,0-1.4,0-2.1,0
			c-0.7,0-1.4,0-2.1,0c-0.7,0-1.4,0-2,0c-0.7,0-1.4,0-2.1,0c-0.7,0-1.4,0-2.1,0c-0.7,0-1.4,0-2.1,0c-0.7,0-1.4,0-2,0
			c-0.7,0-1.4,0-2,0c-0.2,0-0.4,0-0.6,0c0,0,0,0,0,0C4,47,4.8,46.7,5.6,46.5c2-0.6,4.1-1.3,6.1-1.9c1.4-0.4,2.8-0.9,4.3-1.3
			c1.1-0.3,2.2-0.6,3.3-1c0,0,0,0,0.1,0c-0.6-0.1-1.1-0.2-1.7-0.3c-0.8-0.2-1.6-0.4-2.4-0.6c-1.8-0.6-3.6-1.3-5.4-2.1
			C9,38.9,8.2,38.5,7.4,38c-0.8-0.5-1.5-1-2.2-1.7c-1.3-1.2-2.2-2.6-2.9-4.1c-0.5-1.1-0.9-2.3-1.1-3.5C1.1,28.2,1,27.6,1,27
			c0,0,0-0.1,0-0.1c0-0.4,0-0.8,0-1.1c0.1,0,0.1,0,0.1,0c1.3,1,2.6,2,3.9,3.1c1,0.8,2.1,1.6,3.1,2.4c1.3,1,2.6,2,3.9,3
			c1.6,1.2,3.2,2.5,4.7,3.7c1.5,1.2,3.1,2.4,4.6,3.6c0.1,0,0.1,0,0.2,0c1.3-0.4,2.6-0.7,3.9-1c0.7-0.2,1.4-0.3,2.1-0.4
			c0.2,0,0.4,0,0.6,0c0.1,0,0.2,0,0.2,0.1c0,0.1,0,0.1-0.1,0.2c-0.2,0.2-0.5,0.4-0.8,0.5c-1.1,0.7-2.4,1.1-3.7,1.3
			c-0.4,0.1-0.9,0.1-1.4,0.1C24.6,44.2,26.7,45.9,28.9,47.6C28.9,47.6,28.9,47.6,28.9,47.6z"/>
		<path class="st1" d="M26,11.2c0,0.4,0,0.8,0,1.1c0,1.2-0.1,2.4-0.5,3.6c-0.3,0.9-0.7,1.8-1.4,2.5c-0.5,0.5-1,0.8-1.6,1
			c-0.7,0.2-1.3,0.4-2,0.6c-0.5,0.1-0.9,0.2-1.4,0.2c-0.5,0-1.1,0-1.6-0.1c-0.8-0.2-1.1-0.8-1.2-1.5c0-0.6,0.1-1.2,0.3-1.8
			c0.2-0.6,0.4-1.2,0.6-1.8c0.1-0.3,0.2-0.6,0.2-0.9c0-0.3-0.2-0.5-0.5-0.5c-0.8-0.1-1.7,0.5-1.9,1.3c-0.1,0.4,0,0.7,0,1.1
			c0,0.2,0,0.4,0,0.6c0,0.5,0.1,1-0.1,1.6c-0.2,0.6-0.6,1.1-1.1,1.5c-1.3,1-2.7,1.8-4.3,2.3c-0.6,0.2-1.1,0.3-1.7,0.3
			c-0.8,0-1.4-0.6-1.5-1.4c-0.1-0.9,0-1.7,0.2-2.5c0.4-1.8,1.2-3.4,2.3-4.8c0.5-0.7,1.1-1.4,1.8-2c1.1-1.1,2.4-2,3.7-2.9
			c1.2-0.7,2.4-1.4,3.7-2c1.3-0.6,2.6-1.1,3.9-1.5c2-0.6,4-1.2,6.1-1.6c1-0.2,2-0.4,3.1-0.5C31.5,3,32,2.9,32.5,2.9
			c0.5,0,1.1-0.1,1.6-0.1c0.9-0.1,1.7,0,2.6,0c0.4,0,0.9,0,1.3,0.1c1.7,0.1,3.4,0.4,5.1,1c1.3,0.4,2.5,1,3.5,1.9
			c0.5,0.4,1,0.9,1.4,1.4c0.3,0.4,0.5,0.9,0.5,1.4c0,0.5-0.2,1-0.6,1.3c-0.5,0.4-1.2,0.6-1.8,0.7c-0.5,0.1-0.9,0.1-1.4,0
			c-0.5,0-1-0.1-1.5-0.3c-1-0.3-2-0.7-3-1.2c-0.9-0.5-1.8-1-2.6-1.5c-0.4-0.2-0.8-0.2-1.2,0C36,7.7,36,8,35.9,8.2
			c0,0.8,0.2,1.4,0.9,1.9c0.5,0.4,1,0.6,1.5,0.9c0.3,0.2,0.6,0.3,0.9,0.6c0.3,0.4,0.3,0.7,0,1.1c-0.3,0.3-0.6,0.5-0.9,0.8
			c-0.9,0.6-1.9,1.1-3,1.4c-0.6,0.2-1.2,0.3-1.8,0.3c-0.4,0-0.9,0.1-1.3,0c-0.6-0.1-1.3-0.2-1.9-0.5c-0.5-0.2-1-0.5-1.4-0.9
			c-0.4-0.4-0.7-0.8-0.9-1.4c-0.3-0.8-0.6-1.6-1-2.4c-0.1-0.2-0.2-0.4-0.4-0.6c0,0-0.1-0.1-0.1-0.1c-0.2-0.1-0.5-0.2-0.5,0.2
			c0,0.3,0,0.5,0,0.8C26,10.7,26,11,26,11.2C26,11.2,26,11.2,26,11.2z"/>
		<path class="st2" d="M35.3,48.6c-0.1,0-0.1-0.1-0.2-0.2c-0.2-0.7-0.3-1.3-0.5-2c-1-4.1-2.1-8.2-3.1-12.3
			c-1.1-4.4-2.2-8.7-3.3-13.1c-0.2-0.8-0.4-1.5-0.6-2.3c0-0.2,0-0.2,0.2-0.3c0.8-0.2,1.5-0.4,2.3-0.6c0.2,0,0.2,0,0.3,0.2
			c1.1,4.4,2.2,8.7,3.3,13.1c1.1,4.4,2.2,8.7,3.3,13.1c0.3,1.2,0.6,2.3,0.9,3.5c0,0.2,0,0.2-0.1,0.3C37,48.2,36.2,48.4,35.3,48.6
			C35.4,48.6,35.4,48.6,35.3,48.6z"/>
		<path class="st2" d="M25.1,2.2c0,0.7-0.5,1.4-1.3,1.4c-0.8,0-1.3-0.6-1.4-1.3c0-0.7,0.6-1.4,1.4-1.4C24.6,0.8,25.2,1.5,25.1,2.2z"
			/>
	</g>
</g>
<g id="Layer_2">
	<path class="st4" d="M14.1,49.3h-3.5c-0.6,0-1-0.4-1-1v-4.6h5.5v4.6C15.1,48.9,14.7,49.3,14.1,49.3z"/>
	<path class="st4" d="M40.8,49.3h-3.5c-0.6,0-1-0.4-1-1v-4.6h5.5v4.6C41.8,48.9,41.4,49.3,40.8,49.3z"/>
	<path class="st4" d="M45.7,16.2c0-6.1-4.9-14.3-11-14.3H16.6c-6.1,0-11,8.2-11,14.3v21.1c0,2.9,2.4,5.3,5.3,5.3h29.5
		c2.9,0,5.3-2.4,5.3-5.3V16.2z M10,14.9c0-5.1,4.1-9.4,9.2-9.4h13.6c5.1,0,9.2,4.3,9.2,9.4V22H10V14.9z M12.7,40.2
		c-1.8,0-3.3-1.5-3.3-3.3s1.5-3.3,3.3-3.3S16,35,16,36.8S14.5,40.2,12.7,40.2z M39.1,40.2c-1.8,0-3.3-1.5-3.3-3.3s1.5-3.3,3.3-3.3
		s3.3,1.5,3.3,3.3S40.9,40.2,39.1,40.2z"/>
</g>
</svg>
