<?xml version="1.0" encoding="utf-8"?>
<!-- Generator: Adobe Illustrator 24.0.1, SVG Export Plug-In . SVG Version: 6.00 Build 0)  -->
<svg version="1.1" id="Layer_1" xmlns="http://www.w3.org/2000/svg" xmlns:xlink="http://www.w3.org/1999/xlink" x="0px" y="0px"
	 viewBox="0 0 50 50" style="enable-background:new 0 0 50 50;" xml:space="preserve">
<style type="text/css">
	.st0{fill:#8AB0D4;}
	.st1{fill:#8AB1D4;}
</style>
<g>
	<path class="st0" d="M4.4,5.7c10.2,0,20.4,0,30.6,0c0,0,0,0,0.1,0c0.4,0.2,0.6,0.5,0.5,0.8c-0.1,0.4-0.4,0.6-0.8,0.6
		c-0.7,0-1.4,0-2.1,0c-0.3,0-0.3,0-0.3,0.3c0,10.7,0,21.5,0,32.2c0,0.1,0,0.1,0,0.2c0,0.1,0,0.1,0.1,0.1c0.8,0,1.6,0,2.4,0
		c0.1,0,0.1,0,0.1-0.1c0-0.1,0-0.1,0-0.2c0-6.1,0-12.1,0-18.2c0-0.3,0-0.3,0.3-0.3c3.6,0,7.2,0,10.8,0c0.3,0,0.3,0,0.3,0.3
		c0,6.5,0,13.1,0,19.6c0,0.4,0,0.3-0.3,0.3c-14.2,0-28.3,0-42.5,0c-0.1,0-0.2,0-0.3,0c-0.4,0-0.7-0.4-0.7-0.8C2.7,40.2,3,40,3.4,40
		c1.1,0,2.3,0,3.4,0c0.3,0,0.3,0,0.3-0.3c0-3.1,0-6.2,0-9.3c0-7.6,0-15.3,0-22.9c0-0.3,0-0.3-0.3-0.3c-0.7,0-1.5,0-2.2,0
		c-0.4,0-0.7-0.3-0.7-0.7C3.9,6.1,4.1,5.9,4.4,5.7z M16.4,36.3c0,1.2,0,2.3,0,3.5c0,0.1,0,0.2,0.2,0.2c2.1,0,4.3,0,6.4,0
		c0.1,0,0.2-0.1,0.2-0.2c0-2.3,0-4.6,0-6.9c0-0.9-0.7-1.5-1.6-1.5c-1.2,0-2.4,0-3.6,0c-0.9,0-1.6,0.6-1.6,1.6
		C16.4,34,16.4,35.2,16.4,36.3z M17.6,13.4c0,0.8,0,1.6,0,2.4c0,0.2,0,0.2,0.2,0.2c1.3,0,2.6,0,3.9,0c0.2,0,0.2-0.1,0.2-0.2
		c0-1.6,0-3.2,0-4.8c0-0.2,0-0.2-0.2-0.2c-1.3,0-2.6,0-3.9,0c-0.2,0-0.2,0.1-0.2,0.2C17.6,11.8,17.6,12.6,17.6,13.4z M29.9,13.4
		c0-0.8,0-1.6,0-2.5c0-0.1,0-0.2-0.2-0.2c-1.3,0-2.7,0-4,0c-0.2,0-0.2,0.1-0.2,0.2c0,1.6,0,3.3,0,4.9c0,0.2,0.1,0.2,0.2,0.2
		c1.3,0,2.6,0,3.9,0c0.2,0,0.2-0.1,0.2-0.2C29.9,15,29.9,14.2,29.9,13.4z M17.6,21.6c0,0.8,0,1.6,0,2.5c0,0.2,0.1,0.2,0.2,0.2
		c1.3,0,2.6,0,3.9,0c0.2,0,0.2-0.1,0.2-0.2c0-1.6,0-3.2,0-4.9c0-0.2-0.1-0.2-0.2-0.2c-1.3,0-2.6,0-3.9,0c-0.2,0-0.2,0.1-0.2,0.2
		C17.6,20,17.6,20.8,17.6,21.6z M38.5,33c0,0.8,0,1.6,0,2.4c0,0.2,0,0.2,0.2,0.2c1.3,0,2.6,0,3.9,0c0.2,0,0.2-0.1,0.2-0.2
		c0-1.6,0-3.2,0-4.9c0-0.2,0-0.2-0.2-0.2c-1.3,0-2.6,0-3.9,0c-0.2,0-0.2,0-0.2,0.2C38.5,31.3,38.5,32.1,38.5,33z M9.3,21.7
		c0,0.8,0,1.6,0,2.4c0,0.2,0,0.2,0.2,0.2c1.3,0,2.6,0,3.9,0c0.2,0,0.2,0,0.2-0.2c0-1.6,0-3.2,0-4.9c0-0.2,0-0.2-0.2-0.2
		c-1.3,0-2.6,0-4,0c-0.2,0-0.2,0.1-0.2,0.2C9.3,20,9.3,20.9,9.3,21.7z M38.5,25.9c0,0.8,0,1.6,0,2.4c0,0.2,0,0.2,0.2,0.2
		c1.3,0,2.6,0,4,0c0.2,0,0.2,0,0.2-0.2c0-1.6,0-3.3,0-4.9c0-0.2-0.1-0.2-0.2-0.2c-1.3,0-2.6,0-3.9,0c-0.2,0-0.2,0-0.2,0.2
		C38.5,24.3,38.5,25.1,38.5,25.9z M29.9,30.3c0-0.8,0-1.6,0-2.4c0-0.2,0-0.3-0.2-0.3c-1.3,0-2.6,0-3.9,0c-0.2,0-0.2,0-0.2,0.2
		c0,1.6,0,3.2,0,4.8c0,0.2,0,0.2,0.2,0.2c1.3,0,2.6,0,3.9,0c0.2,0,0.2-0.1,0.2-0.2C29.9,31.9,29.9,31.1,29.9,30.3z M9.4,13.4
		c0,0.8,0,1.6,0,2.4c0,0.2,0,0.2,0.2,0.2c1.3,0,2.6,0,3.9,0c0.2,0,0.2-0.1,0.2-0.2c0-1.6,0-3.2,0-4.8c0-0.2,0-0.2-0.2-0.2
		c-1.3,0-2.6,0-3.9,0c-0.2,0-0.2,0.1-0.2,0.2C9.4,11.8,9.4,12.6,9.4,13.4z M25.6,21.6c0,0.8,0,1.6,0,2.4c0,0.2,0,0.2,0.2,0.2
		c1.3,0,2.6,0,3.9,0c0.2,0,0.2-0.1,0.2-0.2c0-1.6,0-3.2,0-4.8c0-0.2,0-0.2-0.2-0.2c-1.3,0-2.6,0-3.9,0c-0.2,0-0.2,0.1-0.2,0.2
		C25.6,20,25.6,20.8,25.6,21.6z M9.4,30.3c0,0.8,0,1.6,0,2.4c0,0.2,0,0.2,0.2,0.2c1.3,0,2.6,0,3.9,0c0.2,0,0.2-0.1,0.2-0.2
		c0-1.6,0-3.2,0-4.9c0-0.2,0-0.2-0.2-0.2c-1.3,0-2.6,0-3.9,0c-0.2,0-0.2,0.1-0.2,0.2C9.4,28.7,9.4,29.5,9.4,30.3z"/>
	<path class="st1" d="M0.6,42.8c0.1,0,0.2,0,0.3,0c16.1,0,32.2,0,48.3,0c0.1,0,0.1,0,0.2,0c0.2,0,0.2,0,0.2,0.2c0,0.4,0,0.7,0,1.1
		c0,0.1,0,0.2-0.2,0.2c-0.1,0-0.1,0-0.2,0c-16.2,0-32.3,0-48.5,0c-0.1,0-0.2,0-0.3,0C0.6,43.8,0.6,43.3,0.6,42.8z"/>
</g>
</svg>
