<svg width="160" height="50" viewBox="0 0 160 50" fill="none" xmlns="http://www.w3.org/2000/svg"><g clip-path="url(#clip0_72:1657)"><path d="M139.478 10.0805C141.353 10.0805 143.153 10.0805 145.051 10.0805C145.131 10.5613 145.211 11.0468 145.305 11.6153C147.895 9.54555 150.766 9.22895 153.782 10.0752C157.271 11.054 159.618 14.2966 159.959 18.4091C160.312 22.6647 158.349 26.5101 154.824 28.0931C151.878 29.4163 148.936 29.3787 146.173 27.4896C146.076 27.4237 145.964 27.3788 145.702 27.2416C145.702 30.4432 145.702 33.538 145.702 36.6843C143.551 36.6843 141.544 36.6843 139.477 36.6843C139.478 27.8234 139.478 19.01 139.478 10.0805ZM145.422 19.9987C145.447 21.0039 145.87 22.5012 147.495 23.3105C148.965 24.0426 150.51 24.0683 151.844 23.0433C153.515 21.7591 153.733 19.9242 153.375 18.0094C153.085 16.4607 152.17 15.3836 150.592 14.9317C150.505 14.9067 150.411 14.8994 150.321 14.8849C147.474 14.4219 145.424 16.2859 145.422 19.9987Z" fill="#1679D5"></path><path d="M50.4019 36.6856C48.2559 36.6856 46.246 36.6856 44.1787 36.6856C44.1787 27.826 44.1787 19.0093 44.1787 10.1121C46.0244 10.1121 47.8747 10.1121 49.7564 10.1121C49.8352 10.5923 49.9126 11.0626 50.0061 11.6298C52.4017 9.6557 55.1065 9.26193 57.9487 9.94592C61.7014 10.8489 63.774 13.4464 64.4555 17.0635C65.1644 20.8232 64.4395 24.2708 61.3583 26.9059C58.3886 29.4453 54.1372 29.655 50.8658 27.4837C50.7697 27.4197 50.6589 27.3775 50.4019 27.2482C50.4019 30.4485 50.4019 33.5426 50.4019 36.6856ZM50.1229 19.3088C50.1269 21.0151 50.5761 22.5262 52.2489 23.3355C53.6933 24.0347 55.2072 24.0512 56.5202 23.0638C58.2123 21.7908 58.4173 19.9499 58.0815 18.0404C57.8092 16.4923 56.8974 15.404 55.3247 14.939C55.2086 14.9047 55.0838 14.8961 54.9629 14.8777C52.1387 14.4588 50.1295 16.2984 50.1229 19.3088Z" fill="#1679D5"></path><path d="M38.8821 28.5496C36.9784 28.5496 35.1741 28.5496 33.2931 28.5496C33.2003 27.979 33.1109 27.4276 32.9981 26.7344C31.5048 28.2673 29.7293 28.8767 27.7274 28.946C22.8994 29.1128 19.1273 25.9838 18.4585 21.2559C18.1321 18.9499 18.3457 16.7146 19.3336 14.5841C21.8868 9.07658 29.3949 8.2488 33.1215 11.7789C33.187 11.1642 33.241 10.6543 33.3011 10.0897C35.1614 10.0897 36.9877 10.0897 38.8821 10.0897C38.8821 16.2318 38.8821 22.3402 38.8821 28.5496ZM24.7918 19.3688C24.7964 21.5355 25.8417 23.1469 27.5559 23.629C29.7533 24.2464 31.8506 23.172 32.5535 21.0685C33.3899 18.5661 32.4006 15.867 30.3514 15.0841C30.0971 14.9871 29.8241 14.9218 29.5537 14.8823C26.7489 14.4707 24.7851 16.3241 24.7918 19.3688Z" fill="#1679D5"></path><path d="M82.3466 28.5021C82.2638 27.9494 82.1811 27.3953 82.109 26.9079C81.1177 27.4566 80.2246 28.138 79.2147 28.479C73.7912 30.3113 68.2496 26.8248 67.5267 21.1253C67.0921 17.6994 67.7036 14.5413 70.3342 11.9972C73.4435 8.98952 79.224 9.0159 81.7258 11.4986C81.8233 11.5955 81.9641 11.6503 82.1784 11.7822C82.2525 11.1892 82.3146 10.6939 82.3853 10.1313C84.2363 10.1313 86.0566 10.1313 87.9323 10.1313C87.9323 16.2575 87.9323 22.3409 87.9323 28.5008C86.0593 28.5021 84.237 28.5021 82.3466 28.5021ZM81.8647 19.2764C81.86 17.1117 80.9702 15.6223 79.3355 15.0439C77.1094 14.2557 74.8766 15.2853 74.123 17.4474C73.2011 20.091 74.2531 22.8613 76.4572 23.5895C76.5727 23.6277 76.6915 23.6581 76.811 23.6838C79.6846 24.3117 81.8714 22.4035 81.8647 19.2764Z" fill="#F0573B"></path><path d="M15.6943 28.1973C15.2011 28.3636 14.7185 28.6544 14.2278 28.6696C12.3702 28.727 10.4751 28.9196 8.65752 28.6459C5.81997 28.2185 4.01437 26.1619 3.77941 23.2603C3.5865 20.8786 3.65859 18.4764 3.61587 16.0827C3.60919 15.6949 3.6152 15.3064 3.6152 14.8005C2.38699 14.8005 1.26759 14.8005 0.147518 14.8005C0.0981231 14.7154 0.0493953 14.631 0 14.5459C3.19 11.0059 6.38067 7.46586 9.57067 3.92586C9.65945 3.9562 9.74889 3.98654 9.83767 4.01688C9.83767 5.98575 9.83767 7.95396 9.83767 10.0132C11.5712 10.0132 13.1552 10.0132 14.8132 10.0132C14.8132 11.6345 14.8132 13.1607 14.8132 14.7945C13.1912 14.7945 11.6079 14.7945 9.93112 14.7945C9.90909 15.2767 9.87305 15.6579 9.87772 16.0392C9.90042 17.9177 9.87572 19.7995 9.98118 21.674C10.0653 23.1647 10.7468 23.8599 12.2414 23.8902C13.3781 23.9133 14.5209 23.6488 15.6943 23.509C15.6943 24.9753 15.6943 26.5424 15.6943 28.1973Z" fill="#1679D5"></path><path d="M100.346 4.06438C100.346 5.99763 100.346 7.93088 100.346 10.0053C102.021 10.0053 103.625 10.0053 105.287 10.0053C105.287 11.6483 105.287 13.1489 105.287 14.7688C103.674 14.7688 102.094 14.7688 100.614 14.7688C100.477 14.9317 100.407 14.9772 100.407 15.0228C100.41 17.2344 100.342 19.4499 100.454 21.6569C100.535 23.2432 101.272 23.9087 102.88 23.9114C103.961 23.9133 105.042 23.6343 106.164 23.4754C106.164 24.9608 106.164 26.5266 106.164 28.1927C105.723 28.3458 105.279 28.5529 104.811 28.6518C102.896 29.0561 100.965 29.099 99.0529 28.6756C96.3014 28.0668 94.5052 26.1711 94.2689 23.3646C94.0653 20.9518 94.1274 18.5172 94.0746 16.0919C94.066 15.7021 94.0733 15.3123 94.0733 14.7978C92.8638 14.7978 91.7451 14.7978 90.6263 14.7978C90.5769 14.7108 90.5275 14.623 90.4781 14.536C93.6681 10.996 96.8588 7.45597 100.049 3.91597C100.148 3.96544 100.247 4.01491 100.346 4.06438Z" fill="#1679D5"></path><path d="M110.346 28.5252C110.346 22.3587 110.346 16.2766 110.346 10.1128C112.217 10.1128 114.062 10.1128 115.969 10.1128C116.036 10.6939 116.1 11.2565 116.186 12.015C117.628 10.1867 119.45 9.58577 121.637 9.67944C121.637 11.4867 121.637 13.2003 121.637 14.9172C120.944 14.8572 120.257 14.7299 119.575 14.7523C117.952 14.8057 117.132 15.4864 116.873 17.0536C116.696 18.1254 116.608 19.2204 116.59 20.3067C116.549 22.7003 116.577 25.0946 116.577 27.4889C116.577 27.8148 116.577 28.14 116.577 28.5252C114.465 28.5252 112.455 28.5252 110.346 28.5252Z" fill="#1679D5"></path><path d="M126.631 14.8255C125.696 14.8255 124.85 14.8255 123.936 14.8255C123.936 13.1924 123.936 11.6681 123.936 10.0871C126.909 10.0871 129.839 10.0871 132.85 10.0871C132.866 10.4406 132.893 10.7638 132.893 11.087C132.896 14.4232 132.895 17.7594 132.895 21.0956C132.895 23.8045 132.903 23.8131 135.603 24.0776C135.603 25.4851 135.603 26.8999 135.603 28.4533C133.268 28.9057 130.933 29.1524 128.784 27.8102C127.212 26.828 126.761 25.1679 126.696 23.4628C126.599 20.9491 126.645 18.4295 126.631 15.9132C126.629 15.586 126.631 15.2595 126.631 14.8255Z" fill="#1679D5"></path><path d="M133.332 3.60795C133.346 5.7404 131.917 7.21721 129.822 7.23568C127.712 7.25415 126.175 5.7272 126.172 3.61125C126.17 1.58566 127.74 0.00792546 129.765 1.0411e-05C131.804 -0.00724505 133.319 1.52432 133.332 3.60795Z" fill="#1679D5"></path><path d="M44.1787 45.5168V45.5049C44.1787 42.7485 45.7681 41.0276 48.2959 41.0276C50.8291 41.0276 52.4131 42.7544 52.4131 45.5049V45.5168C52.4131 48.2732 50.8358 50 48.2959 50C45.7627 50 44.1787 48.2792 44.1787 45.5168ZM51.018 45.5168V45.5049C51.018 43.4892 49.9647 42.2189 48.2959 42.2189C46.6332 42.2189 45.5678 43.4826 45.5678 45.5049V45.5168C45.5678 47.5391 46.6278 48.8088 48.2959 48.8088C49.9827 48.8088 51.018 47.5206 51.018 45.5168Z" fill="#1679D5"></path><path d="M53.5518 43.5248H54.8675V44.4819H54.8982C55.2333 43.8382 55.8908 43.4048 56.8593 43.4048C58.2664 43.4048 59.0761 44.3012 59.0761 45.7575V49.8556H57.7544V46.0042C57.7544 45.0531 57.3039 44.5175 56.3901 44.5175C55.4642 44.5175 54.8675 45.1797 54.8675 46.1665V49.8556H53.5518V43.5248Z" fill="#1679D5"></path><path d="M60.3911 41.1721H61.7067V49.8556H60.3911V41.1721Z" fill="#1679D5"></path><path d="M63.0037 41.804C63.0037 41.3884 63.3448 41.052 63.7713 41.052C64.2039 41.052 64.5389 41.3891 64.5389 41.804C64.5389 42.2129 64.2039 42.55 63.7713 42.55C63.3448 42.55 63.0037 42.2129 63.0037 41.804ZM63.1132 43.5248H64.4288V49.8556H63.1132V43.5248Z" fill="#1679D5"></path><path d="M65.7865 43.5248H67.1022V44.4819H67.1329C67.4679 43.8382 68.1254 43.4048 69.094 43.4048C70.5011 43.4048 71.3108 44.3012 71.3108 45.7575V49.8556H69.9891V46.0042C69.9891 45.0531 69.5385 44.5175 68.6247 44.5175C67.6989 44.5175 67.1022 45.1797 67.1022 46.1665V49.8556H65.7865V43.5248Z" fill="#1679D5"></path><path d="M72.2907 46.7146V46.7087C72.2907 44.7286 73.4474 43.4048 75.2444 43.4048C77.0413 43.4048 78.1433 44.6804 78.1433 46.582V47.0213H73.6063C73.6303 48.2191 74.2945 48.917 75.3418 48.917C76.1215 48.917 76.6388 48.5199 76.8037 48.0443L76.8217 47.9962H78.0699L78.0579 48.0621C77.851 49.0674 76.8644 49.9815 75.3111 49.9815C73.4294 49.9822 72.2907 48.7125 72.2907 46.7146ZM73.6243 46.1005H76.8397C76.7302 45.005 76.1088 44.4694 75.2504 44.4694C74.398 44.47 73.7405 45.0419 73.6243 46.1005Z" fill="#1679D5"></path><path d="M84.0267 42.3336H81.3347V41.1721H88.0765V42.3336H85.3904V49.8562H84.0261V42.3336H84.0267Z" fill="#1679D5"></path><path d="M87.8328 43.5248H89.1485V44.6079H89.1792C89.3861 43.8678 89.9221 43.4041 90.653 43.4041C90.8419 43.4041 91.0061 43.4345 91.1096 43.4523V44.662C91.0061 44.6198 90.7745 44.5901 90.5189 44.5901C89.6725 44.5901 89.1485 45.1375 89.1485 46.0827V49.8562H87.8328V43.5248Z" fill="#1679D5"></path><path d="M91.5355 48.0562V48.0443C91.5355 46.9428 92.4005 46.2694 93.9164 46.179L95.658 46.0768V45.6012C95.658 44.9034 95.2014 44.4819 94.385 44.4819C93.6241 44.4819 93.1548 44.8368 93.0454 45.3427L93.0333 45.3968H91.7911L91.7971 45.3308C91.8886 44.2418 92.8444 43.4048 94.4218 43.4048C95.9871 43.4048 96.9796 44.2233 96.9796 45.4931V49.8562H95.658V48.8569H95.6339C95.2621 49.537 94.5192 49.9703 93.6728 49.9703C92.3945 49.9703 91.5355 49.194 91.5355 48.0562ZM94.0326 48.9288C94.9584 48.9288 95.6586 48.3088 95.6586 47.4843V46.991L94.0933 47.0873C93.3017 47.1354 92.8631 47.4784 92.8631 48.014V48.0259C92.8631 48.5799 93.3257 48.9288 94.0326 48.9288Z" fill="#1679D5"></path><path d="M97.6925 43.5248H99.0929L100.701 48.5859H100.732L102.34 43.5248H103.71L101.414 49.8556H100.001L97.6925 43.5248Z" fill="#1679D5"></path><path d="M103.941 46.7146V46.7087C103.941 44.7286 105.098 43.4048 106.895 43.4048C108.691 43.4048 109.794 44.6804 109.794 46.582V47.0213H105.257C105.281 48.2191 105.945 48.917 106.992 48.917C107.772 48.917 108.289 48.5199 108.454 48.0443L108.472 47.9962H109.72L109.708 48.0621C109.501 49.0674 108.515 49.9815 106.961 49.9815C105.08 49.9822 103.941 48.7125 103.941 46.7146ZM105.275 46.1005H108.49C108.381 45.005 107.759 44.4694 106.901 44.4694C106.048 44.47 105.39 45.0419 105.275 46.1005Z" fill="#1679D5"></path><path d="M110.859 41.1721H112.175V49.8556H110.859V41.1721Z" fill="#1679D5"></path><path d="M116.212 41.1721H119.483C121.207 41.1721 122.4 42.3152 122.4 44.0182V44.0301C122.4 45.7272 121.207 46.8887 119.483 46.8887H117.577V49.8556H116.212V41.1721ZM117.577 42.3092V45.7576H119.142C120.33 45.7576 121.012 45.1257 121.012 44.0367V44.0248C121.012 42.9418 120.33 42.3099 119.142 42.3099H117.577V42.3092Z" fill="#1679D5"></path><path d="M123.484 41.1721H124.8V49.8556H123.484V41.1721Z" fill="#1679D5"></path><path d="M125.896 48.0562V48.0443C125.896 46.9428 126.761 46.2694 128.277 46.179L130.018 46.0768V45.6012C130.018 44.9034 129.562 44.4819 128.745 44.4819C127.985 44.4819 127.515 44.8368 127.406 45.3427L127.394 45.3968H126.152L126.158 45.3308C126.249 44.2418 127.205 43.4048 128.782 43.4048C130.347 43.4048 131.34 44.2233 131.34 45.4931V49.8562H130.018V48.8569H129.994C129.623 49.537 128.88 49.9703 128.033 49.9703C126.754 49.9703 125.896 49.194 125.896 48.0562ZM128.393 48.9288C129.319 48.9288 130.019 48.3088 130.019 47.4843V46.991L128.454 47.0873C127.662 47.1354 127.224 47.4784 127.224 48.014V48.0259C127.224 48.5799 127.686 48.9288 128.393 48.9288Z" fill="#1679D5"></path><path d="M132.985 48.1888V44.5597H132.065V43.5249H132.985V41.8759H134.33V43.5249H135.53V44.5597H134.33V48.1103C134.33 48.7541 134.623 48.9467 135.177 48.9467C135.317 48.9467 135.433 48.9348 135.53 48.9229V49.9281C135.378 49.9519 135.128 49.9822 134.86 49.9822C133.594 49.9822 132.985 49.4526 132.985 48.1888Z" fill="#1679D5"></path><path d="M136.998 44.5604H136.115V43.5255H136.998V42.8514C136.998 41.6239 137.583 41.0461 138.886 41.0461C139.153 41.0461 139.446 41.0699 139.622 41.1002V42.0632C139.494 42.0454 139.33 42.0329 139.166 42.0329C138.575 42.0329 138.295 42.3158 138.295 42.8751V43.5248H139.598V44.5597H138.319V49.8555H136.997V44.5604H136.998Z" fill="#1679D5"></path><path d="M139.793 46.6902V46.6783C139.793 44.656 141.006 43.4048 142.826 43.4048C144.653 43.4048 145.872 44.6508 145.872 46.6783V46.6902C145.872 48.7303 144.666 49.9822 142.832 49.9822C140.993 49.9822 139.793 48.7244 139.793 46.6902ZM144.525 46.6902V46.6783C144.525 45.2945 143.855 44.4938 142.826 44.4938C141.815 44.4938 141.139 45.2939 141.139 46.6783V46.6902C141.139 48.0925 141.809 48.8926 142.838 48.8926C143.868 48.8926 144.525 48.0865 144.525 46.6902Z" fill="#1679D5"></path><path d="M146.888 43.5248H148.204V44.6079H148.235C148.442 43.8678 148.978 43.4041 149.708 43.4041C149.897 43.4041 150.062 43.4345 150.165 43.4523V44.662C150.062 44.6198 149.83 44.5901 149.574 44.5901C148.728 44.5901 148.204 45.1375 148.204 46.0827V49.8562H146.888V43.5248Z" fill="#1679D5"></path><path d="M150.981 43.5248H152.296V44.5057H152.327C152.601 43.8434 153.253 43.4041 154.093 43.4041C154.976 43.4041 155.622 43.8553 155.878 44.6501H155.908C156.237 43.8797 156.992 43.4041 157.906 43.4041C159.173 43.4041 160.001 44.2346 160.001 45.5043V49.8549H158.68V45.8169C158.68 44.9924 158.235 44.5169 157.455 44.5169C156.676 44.5169 156.134 45.0947 156.134 45.8947V49.8542H154.843V45.72C154.843 44.9858 154.374 44.5162 153.631 44.5162C152.851 44.5162 152.297 45.1237 152.297 45.9422V49.8536H150.981V43.5248H150.981Z" fill="#1679D5"></path></g><defs><clipPath id="clip0_72:1657"><rect width="160" height="50" fill="white"></rect></clipPath></defs></svg>