<?xml version="1.0" encoding="UTF-8"?>
<svg xmlns="http://www.w3.org/2000/svg" xmlns:xlink="http://www.w3.org/1999/xlink" width="167px" height="50px" viewBox="0 0 166 50" version="1.1">
<defs>
<clipPath id="clip1">
  <path d="M 45 42 L 52 42 L 52 49.988281 L 45 49.988281 Z M 45 42 "/>
</clipPath>
<clipPath id="clip2">
  <path d="M 52 42 L 54 42 L 54 49.988281 L 52 49.988281 Z M 52 42 "/>
</clipPath>
<clipPath id="clip3">
  <path d="M 54 44 L 60 44 L 60 49.988281 L 54 49.988281 Z M 54 44 "/>
</clipPath>
<clipPath id="clip4">
  <path d="M 60 44 L 66 44 L 66 49.988281 L 60 49.988281 Z M 60 44 "/>
</clipPath>
<clipPath id="clip5">
  <path d="M 66 42 L 71 42 L 71 49.988281 L 66 49.988281 Z M 66 42 "/>
</clipPath>
<clipPath id="clip6">
  <path d="M 70 44 L 76 44 L 76 49.988281 L 70 49.988281 Z M 70 44 "/>
</clipPath>
<clipPath id="clip7">
  <path d="M 76 42 L 82 42 L 82 49.988281 L 76 49.988281 Z M 76 42 "/>
</clipPath>
<clipPath id="clip8">
  <path d="M 82 44 L 88 44 L 88 49.988281 L 82 49.988281 Z M 82 44 "/>
</clipPath>
<clipPath id="clip9">
  <path d="M 88 42 L 90 42 L 90 49.988281 L 88 49.988281 Z M 88 42 "/>
</clipPath>
<clipPath id="clip10">
  <path d="M 90 44 L 96 44 L 96 49.988281 L 90 49.988281 Z M 90 44 "/>
</clipPath>
<clipPath id="clip11">
  <path d="M 98 42 L 105 42 L 105 49.988281 L 98 49.988281 Z M 98 42 "/>
</clipPath>
<clipPath id="clip12">
  <path d="M 103 44 L 107 44 L 107 49.988281 L 103 49.988281 Z M 103 44 "/>
</clipPath>
<clipPath id="clip13">
  <path d="M 107 44 L 112 44 L 112 49.988281 L 107 49.988281 Z M 107 44 "/>
</clipPath>
<clipPath id="clip14">
  <path d="M 112 44 L 118 44 L 118 49.988281 L 112 49.988281 Z M 112 44 "/>
</clipPath>
<clipPath id="clip15">
  <path d="M 117 44 L 123 44 L 123 49.988281 L 117 49.988281 Z M 117 44 "/>
</clipPath>
<clipPath id="clip16">
  <path d="M 123 42 L 125 42 L 125 49.988281 L 123 49.988281 Z M 123 42 "/>
</clipPath>
<clipPath id="clip17">
  <path d="M 128 42 L 134 42 L 134 49.988281 L 128 49.988281 Z M 128 42 "/>
</clipPath>
<clipPath id="clip18">
  <path d="M 134 42 L 136 42 L 136 49.988281 L 134 49.988281 Z M 134 42 "/>
</clipPath>
<clipPath id="clip19">
  <path d="M 136 44 L 142 44 L 142 49.988281 L 136 49.988281 Z M 136 44 "/>
</clipPath>
<clipPath id="clip20">
  <path d="M 141 42 L 145 42 L 145 49.988281 L 141 49.988281 Z M 141 42 "/>
</clipPath>
<clipPath id="clip21">
  <path d="M 145 42 L 149 42 L 149 49.988281 L 145 49.988281 Z M 145 42 "/>
</clipPath>
<clipPath id="clip22">
  <path d="M 148 44 L 154 44 L 154 49.988281 L 148 49.988281 Z M 148 44 "/>
</clipPath>
<clipPath id="clip23">
  <path d="M 154 44 L 158 44 L 158 49.988281 L 154 49.988281 Z M 154 44 "/>
</clipPath>
<clipPath id="clip24">
  <path d="M 158 44 L 165.839844 44 L 165.839844 49.988281 L 158 49.988281 Z M 158 44 "/>
</clipPath>
<clipPath id="clip25">
  <path d="M 144 10 L 165.839844 10 L 165.839844 39 L 144 39 Z M 144 10 "/>
</clipPath>
<clipPath id="clip26">
  <path d="M 0.160156 4 L 17 4 L 17 30 L 0.160156 30 Z M 0.160156 4 "/>
</clipPath>
</defs>
<g id="surface1">
<g clip-path="url(#clip1)" clip-rule="nonzero">
<path style=" stroke:none;fill-rule:nonzero;fill:rgb(8.627451%,47.45098%,83.529412%);fill-opacity:1;" d="M 45.910156 42.3125 L 48.921875 42.3125 C 50.261719 42.3125 51.140625 43.066406 51.140625 44.210938 L 51.140625 44.21875 C 51.140625 45.019531 50.539062 45.757812 49.742188 45.875 L 49.742188 45.894531 C 50.816406 46.003906 51.511719 46.746094 51.511719 47.742188 L 51.511719 47.753906 C 51.511719 49.082031 50.542969 49.890625 48.9375 49.890625 L 45.910156 49.890625 Z M 47.082031 43.273438 L 47.082031 45.542969 L 48.378906 45.542969 C 49.414062 45.542969 49.972656 45.121094 49.972656 44.359375 L 49.972656 44.351562 C 49.972656 43.65625 49.484375 43.273438 48.636719 43.273438 Z M 47.082031 46.449219 L 47.082031 48.929688 L 48.695312 48.929688 C 49.746094 48.929688 50.3125 48.503906 50.3125 47.695312 L 50.3125 47.683594 C 50.3125 46.871094 49.738281 46.449219 48.617188 46.449219 Z M 47.082031 46.449219 "/>
</g>
<g clip-path="url(#clip2)" clip-rule="nonzero">
<path style=" stroke:none;fill-rule:nonzero;fill:rgb(8.627451%,47.45098%,83.529412%);fill-opacity:1;" d="M 52.425781 42.3125 L 53.554688 42.3125 L 53.554688 49.890625 L 52.425781 49.890625 Z M 52.425781 42.3125 "/>
</g>
<g clip-path="url(#clip3)" clip-rule="nonzero">
<path style=" stroke:none;fill-rule:nonzero;fill:rgb(8.627451%,47.45098%,83.529412%);fill-opacity:1;" d="M 54.46875 47.128906 L 54.46875 47.117188 C 54.46875 45.355469 55.507812 44.261719 57.074219 44.261719 C 58.640625 44.261719 59.6875 45.347656 59.6875 47.117188 L 59.6875 47.128906 C 59.6875 48.910156 58.652344 50 57.078125 50 C 55.5 50 54.46875 48.902344 54.46875 47.128906 Z M 58.53125 47.128906 L 58.53125 47.117188 C 58.53125 45.910156 57.957031 45.210938 57.074219 45.210938 C 56.207031 45.210938 55.625 45.910156 55.625 47.117188 L 55.625 47.128906 C 55.625 48.351562 56.199219 49.050781 57.082031 49.050781 C 57.96875 49.050781 58.53125 48.347656 58.53125 47.128906 Z M 58.53125 47.128906 "/>
</g>
<g clip-path="url(#clip4)" clip-rule="nonzero">
<path style=" stroke:none;fill-rule:nonzero;fill:rgb(8.627451%,47.45098%,83.529412%);fill-opacity:1;" d="M 60.316406 47.125 L 60.316406 47.117188 C 60.316406 45.371094 61.339844 44.261719 62.910156 44.261719 C 64.324219 44.261719 65.183594 45.175781 65.277344 46.214844 L 65.285156 46.25 L 64.207031 46.25 L 64.195312 46.210938 C 64.078125 45.667969 63.65625 45.210938 62.921875 45.210938 C 62.042969 45.210938 61.472656 45.949219 61.472656 47.128906 L 61.472656 47.132812 C 61.472656 48.339844 62.054688 49.050781 62.925781 49.050781 C 63.621094 49.050781 64.066406 48.644531 64.203125 48.046875 L 64.207031 48.007812 L 65.292969 48.007812 L 65.289062 48.042969 C 65.167969 49.148438 64.25 50 62.925781 50 C 61.320312 50 60.316406 48.890625 60.316406 47.125 Z M 60.316406 47.125 "/>
</g>
<g clip-path="url(#clip5)" clip-rule="nonzero">
<path style=" stroke:none;fill-rule:nonzero;fill:rgb(8.627451%,47.45098%,83.529412%);fill-opacity:1;" d="M 66.15625 42.3125 L 67.285156 42.3125 L 67.285156 46.722656 L 67.3125 46.722656 L 69.519531 44.367188 L 70.847656 44.367188 L 68.589844 46.75 L 70.933594 49.890625 L 69.625 49.890625 L 67.757812 47.433594 L 67.285156 47.902344 L 67.285156 49.890625 L 66.15625 49.890625 Z M 66.15625 42.3125 "/>
</g>
<g clip-path="url(#clip6)" clip-rule="nonzero">
<path style=" stroke:none;fill-rule:nonzero;fill:rgb(8.627451%,47.45098%,83.529412%);fill-opacity:1;" d="M 70.988281 47.125 L 70.988281 47.117188 C 70.988281 45.371094 72.011719 44.261719 73.582031 44.261719 C 74.996094 44.261719 75.855469 45.175781 75.949219 46.214844 L 75.953125 46.25 L 74.878906 46.25 L 74.867188 46.210938 C 74.746094 45.667969 74.328125 45.210938 73.589844 45.210938 C 72.714844 45.210938 72.144531 45.949219 72.144531 47.128906 L 72.144531 47.132812 C 72.144531 48.339844 72.722656 49.050781 73.597656 49.050781 C 74.292969 49.050781 74.738281 48.644531 74.871094 48.046875 L 74.878906 48.007812 L 75.964844 48.007812 L 75.960938 48.042969 C 75.839844 49.148438 74.917969 50 73.597656 50 C 71.992188 50 70.988281 48.890625 70.988281 47.125 Z M 70.988281 47.125 "/>
</g>
<g clip-path="url(#clip7)" clip-rule="nonzero">
<path style=" stroke:none;fill-rule:nonzero;fill:rgb(8.627451%,47.45098%,83.529412%);fill-opacity:1;" d="M 76.808594 42.3125 L 77.9375 42.3125 L 77.9375 45.273438 L 77.960938 45.273438 C 78.253906 44.632812 78.84375 44.261719 79.667969 44.261719 C 80.84375 44.261719 81.617188 45.144531 81.617188 46.476562 L 81.617188 49.890625 L 80.488281 49.890625 L 80.488281 46.691406 C 80.488281 45.777344 80.027344 45.230469 79.234375 45.230469 C 78.453125 45.230469 77.9375 45.832031 77.9375 46.691406 L 77.9375 49.890625 L 76.808594 49.890625 Z M 76.808594 42.3125 "/>
</g>
<g clip-path="url(#clip8)" clip-rule="nonzero">
<path style=" stroke:none;fill-rule:nonzero;fill:rgb(8.627451%,47.45098%,83.529412%);fill-opacity:1;" d="M 82.492188 48.320312 L 82.492188 48.308594 C 82.492188 47.347656 83.234375 46.761719 84.535156 46.683594 L 86.03125 46.59375 L 86.03125 46.179688 C 86.03125 45.570312 85.636719 45.203125 84.9375 45.203125 C 84.285156 45.203125 83.882812 45.511719 83.785156 45.953125 L 83.777344 46 L 82.710938 46 L 82.714844 45.941406 C 82.792969 44.992188 83.613281 44.261719 84.96875 44.261719 C 86.3125 44.261719 87.164062 44.976562 87.164062 46.082031 L 87.164062 49.890625 L 86.03125 49.890625 L 86.03125 49.015625 L 86.007812 49.015625 C 85.691406 49.609375 85.050781 49.988281 84.324219 49.988281 C 83.226562 49.988281 82.492188 49.3125 82.492188 48.320312 Z M 84.636719 49.082031 C 85.429688 49.082031 86.03125 48.539062 86.03125 47.820312 L 86.03125 47.390625 L 84.6875 47.476562 C 84.007812 47.515625 83.628906 47.816406 83.628906 48.285156 L 83.628906 48.292969 C 83.628906 48.777344 84.027344 49.082031 84.636719 49.082031 Z M 84.636719 49.082031 "/>
</g>
<g clip-path="url(#clip9)" clip-rule="nonzero">
<path style=" stroke:none;fill-rule:nonzero;fill:rgb(8.627451%,47.45098%,83.529412%);fill-opacity:1;" d="M 88.210938 42.863281 C 88.210938 42.503906 88.503906 42.207031 88.871094 42.207031 C 89.242188 42.207031 89.527344 42.503906 89.527344 42.863281 C 89.527344 43.222656 89.242188 43.515625 88.871094 43.515625 C 88.503906 43.515625 88.210938 43.222656 88.210938 42.863281 Z M 88.304688 44.367188 L 89.4375 44.367188 L 89.4375 49.890625 L 88.304688 49.890625 Z M 88.304688 44.367188 "/>
</g>
<g clip-path="url(#clip10)" clip-rule="nonzero">
<path style=" stroke:none;fill-rule:nonzero;fill:rgb(8.627451%,47.45098%,83.529412%);fill-opacity:1;" d="M 90.601562 44.367188 L 91.730469 44.367188 L 91.730469 45.203125 L 91.757812 45.203125 C 92.042969 44.640625 92.609375 44.261719 93.441406 44.261719 C 94.648438 44.261719 95.34375 45.042969 95.34375 46.3125 L 95.34375 49.890625 L 94.207031 49.890625 L 94.207031 46.53125 C 94.207031 45.699219 93.820312 45.234375 93.035156 45.234375 C 92.242188 45.234375 91.730469 45.808594 91.730469 46.671875 L 91.730469 49.890625 L 90.601562 49.890625 Z M 90.601562 44.367188 "/>
</g>
<g clip-path="url(#clip11)" clip-rule="nonzero">
<path style=" stroke:none;fill-rule:nonzero;fill:rgb(8.627451%,47.45098%,83.529412%);fill-opacity:1;" d="M 100.609375 43.328125 L 98.296875 43.328125 L 98.296875 42.3125 L 104.085938 42.3125 L 104.085938 43.328125 L 101.78125 43.328125 L 101.78125 49.890625 L 100.609375 49.890625 Z M 100.609375 43.328125 "/>
</g>
<g clip-path="url(#clip12)" clip-rule="nonzero">
<path style=" stroke:none;fill-rule:nonzero;fill:rgb(8.627451%,47.45098%,83.529412%);fill-opacity:1;" d="M 103.875 44.367188 L 105.007812 44.367188 L 105.007812 45.3125 L 105.03125 45.3125 C 105.210938 44.667969 105.671875 44.261719 106.296875 44.261719 C 106.460938 44.261719 106.601562 44.289062 106.691406 44.304688 L 106.691406 45.359375 C 106.601562 45.324219 106.402344 45.296875 106.183594 45.296875 C 105.457031 45.296875 105.007812 45.773438 105.007812 46.597656 L 105.007812 49.890625 L 103.875 49.890625 Z M 103.875 44.367188 "/>
</g>
<g clip-path="url(#clip13)" clip-rule="nonzero">
<path style=" stroke:none;fill-rule:nonzero;fill:rgb(8.627451%,47.45098%,83.529412%);fill-opacity:1;" d="M 107.054688 48.320312 L 107.054688 48.308594 C 107.054688 47.347656 107.800781 46.761719 109.101562 46.683594 L 110.597656 46.59375 L 110.597656 46.179688 C 110.597656 45.570312 110.203125 45.203125 109.503906 45.203125 C 108.851562 45.203125 108.445312 45.511719 108.351562 45.953125 L 108.34375 46 L 107.277344 46 L 107.28125 45.941406 C 107.359375 44.992188 108.179688 44.261719 109.535156 44.261719 C 110.878906 44.261719 111.730469 44.976562 111.730469 46.082031 L 111.730469 49.890625 L 110.597656 49.890625 L 110.597656 49.015625 L 110.574219 49.015625 C 110.257812 49.609375 109.617188 49.988281 108.890625 49.988281 C 107.792969 49.988281 107.054688 49.3125 107.054688 48.320312 Z M 109.199219 49.082031 C 109.996094 49.082031 110.597656 48.539062 110.597656 47.820312 L 110.597656 47.390625 L 109.25 47.476562 C 108.574219 47.515625 108.195312 47.816406 108.195312 48.285156 L 108.195312 48.292969 C 108.195312 48.777344 108.59375 49.082031 109.199219 49.082031 Z M 109.199219 49.082031 "/>
</g>
<g clip-path="url(#clip14)" clip-rule="nonzero">
<path style=" stroke:none;fill-rule:nonzero;fill:rgb(8.627451%,47.45098%,83.529412%);fill-opacity:1;" d="M 112.34375 44.367188 L 113.546875 44.367188 L 114.925781 48.78125 L 114.953125 48.78125 L 116.332031 44.367188 L 117.507812 44.367188 L 115.535156 49.890625 L 114.324219 49.890625 Z M 112.34375 44.367188 "/>
</g>
<g clip-path="url(#clip15)" clip-rule="nonzero">
<path style=" stroke:none;fill-rule:nonzero;fill:rgb(8.627451%,47.45098%,83.529412%);fill-opacity:1;" d="M 117.707031 47.148438 L 117.707031 47.144531 C 117.707031 45.417969 118.699219 44.261719 120.242188 44.261719 C 121.785156 44.261719 122.734375 45.375 122.734375 47.035156 L 122.734375 47.417969 L 118.835938 47.417969 C 118.859375 48.460938 119.429688 49.070312 120.328125 49.070312 C 120.996094 49.070312 121.441406 48.726562 121.582031 48.3125 L 121.597656 48.269531 L 122.667969 48.269531 L 122.660156 48.328125 C 122.480469 49.203125 121.632812 50.003906 120.300781 50.003906 C 118.683594 50 117.707031 48.890625 117.707031 47.148438 Z M 118.851562 46.613281 L 121.613281 46.613281 C 121.519531 45.660156 120.984375 45.191406 120.25 45.191406 C 119.515625 45.191406 118.953125 45.691406 118.851562 46.613281 Z M 118.851562 46.613281 "/>
</g>
<g clip-path="url(#clip16)" clip-rule="nonzero">
<path style=" stroke:none;fill-rule:nonzero;fill:rgb(8.627451%,47.45098%,83.529412%);fill-opacity:1;" d="M 123.648438 42.3125 L 124.777344 42.3125 L 124.777344 49.890625 L 123.648438 49.890625 Z M 123.648438 42.3125 "/>
</g>
<g clip-path="url(#clip17)" clip-rule="nonzero">
<path style=" stroke:none;fill-rule:nonzero;fill:rgb(8.627451%,47.45098%,83.529412%);fill-opacity:1;" d="M 128.242188 42.3125 L 131.050781 42.3125 C 132.53125 42.3125 133.558594 43.3125 133.558594 44.796875 L 133.558594 44.808594 C 133.558594 46.289062 132.53125 47.300781 131.050781 47.300781 L 129.414062 47.300781 L 129.414062 49.890625 L 128.242188 49.890625 Z M 129.414062 43.308594 L 129.414062 46.3125 L 130.757812 46.3125 C 131.777344 46.3125 132.363281 45.761719 132.363281 44.8125 L 132.363281 44.804688 C 132.363281 43.859375 131.777344 43.308594 130.757812 43.308594 Z M 129.414062 43.308594 "/>
</g>
<g clip-path="url(#clip18)" clip-rule="nonzero">
<path style=" stroke:none;fill-rule:nonzero;fill:rgb(8.627451%,47.45098%,83.529412%);fill-opacity:1;" d="M 134.488281 42.3125 L 135.617188 42.3125 L 135.617188 49.890625 L 134.488281 49.890625 Z M 134.488281 42.3125 "/>
</g>
<g clip-path="url(#clip19)" clip-rule="nonzero">
<path style=" stroke:none;fill-rule:nonzero;fill:rgb(8.627451%,47.45098%,83.529412%);fill-opacity:1;" d="M 136.558594 48.320312 L 136.558594 48.308594 C 136.558594 47.347656 137.300781 46.761719 138.601562 46.683594 L 140.097656 46.59375 L 140.097656 46.179688 C 140.097656 45.570312 139.703125 45.203125 139.003906 45.203125 C 138.351562 45.203125 137.949219 45.511719 137.855469 45.953125 L 137.84375 46 L 136.777344 46 L 136.78125 45.941406 C 136.859375 44.992188 137.683594 44.261719 139.035156 44.261719 C 140.378906 44.261719 141.230469 44.976562 141.230469 46.082031 L 141.230469 49.890625 L 140.097656 49.890625 L 140.097656 49.015625 L 140.078125 49.015625 C 139.757812 49.609375 139.121094 49.988281 138.394531 49.988281 C 137.296875 49.988281 136.558594 49.3125 136.558594 48.320312 Z M 138.703125 49.082031 C 139.496094 49.082031 140.097656 48.539062 140.097656 47.820312 L 140.097656 47.390625 L 138.753906 47.476562 C 138.074219 47.515625 137.695312 47.816406 137.695312 48.285156 L 137.695312 48.292969 C 137.699219 48.777344 138.09375 49.082031 138.703125 49.082031 Z M 138.703125 49.082031 "/>
</g>
<g clip-path="url(#clip20)" clip-rule="nonzero">
<path style=" stroke:none;fill-rule:nonzero;fill:rgb(8.627451%,47.45098%,83.529412%);fill-opacity:1;" d="M 142.644531 48.433594 L 142.644531 45.269531 L 141.855469 45.269531 L 141.855469 44.367188 L 142.644531 44.367188 L 142.644531 42.925781 L 143.800781 42.925781 L 143.800781 44.367188 L 144.832031 44.367188 L 144.832031 45.269531 L 143.800781 45.269531 L 143.800781 48.367188 C 143.800781 48.929688 144.050781 49.097656 144.527344 49.097656 C 144.648438 49.097656 144.746094 49.085938 144.832031 49.074219 L 144.832031 49.953125 C 144.699219 49.972656 144.484375 50 144.253906 50 C 143.167969 50 142.644531 49.539062 142.644531 48.433594 Z M 142.644531 48.433594 "/>
</g>
<g clip-path="url(#clip21)" clip-rule="nonzero">
<path style=" stroke:none;fill-rule:nonzero;fill:rgb(8.627451%,47.45098%,83.529412%);fill-opacity:1;" d="M 146.089844 45.269531 L 145.332031 45.269531 L 145.332031 44.367188 L 146.089844 44.367188 L 146.089844 43.777344 C 146.089844 42.707031 146.589844 42.203125 147.710938 42.203125 C 147.941406 42.203125 148.191406 42.222656 148.34375 42.25 L 148.34375 43.089844 C 148.234375 43.074219 148.09375 43.0625 147.949219 43.0625 C 147.441406 43.0625 147.203125 43.308594 147.203125 43.796875 L 147.203125 44.363281 L 148.320312 44.363281 L 148.320312 45.269531 L 147.222656 45.269531 L 147.222656 49.890625 L 146.089844 49.890625 Z M 146.089844 45.269531 "/>
</g>
<g clip-path="url(#clip22)" clip-rule="nonzero">
<path style=" stroke:none;fill-rule:nonzero;fill:rgb(8.627451%,47.45098%,83.529412%);fill-opacity:1;" d="M 148.488281 47.128906 L 148.488281 47.117188 C 148.488281 45.355469 149.53125 44.261719 151.09375 44.261719 C 152.664062 44.261719 153.707031 45.347656 153.707031 47.117188 L 153.707031 47.128906 C 153.707031 48.910156 152.671875 50 151.097656 50 C 149.519531 50 148.488281 48.902344 148.488281 47.128906 Z M 152.554688 47.128906 L 152.554688 47.117188 C 152.554688 45.910156 151.976562 45.210938 151.09375 45.210938 C 150.226562 45.210938 149.644531 45.910156 149.644531 47.117188 L 149.644531 47.128906 C 149.644531 48.351562 150.21875 49.050781 151.105469 49.050781 C 151.988281 49.050781 152.554688 48.347656 152.554688 47.128906 Z M 152.554688 47.128906 "/>
</g>
<g clip-path="url(#clip23)" clip-rule="nonzero">
<path style=" stroke:none;fill-rule:nonzero;fill:rgb(8.627451%,47.45098%,83.529412%);fill-opacity:1;" d="M 154.582031 44.367188 L 155.710938 44.367188 L 155.710938 45.3125 L 155.738281 45.3125 C 155.914062 44.667969 156.375 44.261719 157.003906 44.261719 C 157.164062 44.261719 157.304688 44.289062 157.394531 44.304688 L 157.394531 45.359375 C 157.304688 45.324219 157.105469 45.296875 156.886719 45.296875 C 156.160156 45.296875 155.710938 45.773438 155.710938 46.597656 L 155.710938 49.890625 L 154.582031 49.890625 Z M 154.582031 44.367188 "/>
</g>
<g clip-path="url(#clip24)" clip-rule="nonzero">
<path style=" stroke:none;fill-rule:nonzero;fill:rgb(8.627451%,47.45098%,83.529412%);fill-opacity:1;" d="M 158.09375 44.367188 L 159.226562 44.367188 L 159.226562 45.222656 L 159.25 45.222656 C 159.484375 44.644531 160.046875 44.261719 160.765625 44.261719 C 161.523438 44.261719 162.078125 44.65625 162.300781 45.347656 L 162.324219 45.347656 C 162.609375 44.675781 163.257812 44.261719 164.039062 44.261719 C 165.128906 44.261719 165.839844 44.988281 165.839844 46.09375 L 165.839844 49.890625 L 164.703125 49.890625 L 164.703125 46.367188 C 164.703125 45.648438 164.320312 45.234375 163.652344 45.234375 C 162.984375 45.234375 162.519531 45.738281 162.519531 46.433594 L 162.519531 49.890625 L 161.410156 49.890625 L 161.410156 46.285156 C 161.410156 45.644531 161.003906 45.234375 160.367188 45.234375 C 159.699219 45.234375 159.222656 45.761719 159.222656 46.476562 L 159.222656 49.890625 L 158.09375 49.890625 Z M 158.09375 44.367188 "/>
</g>
<g clip-path="url(#clip25)" clip-rule="nonzero">
<path style=" stroke:none;fill-rule:nonzero;fill:rgb(8.627451%,47.45098%,83.529412%);fill-opacity:1;" d="M 144.589844 10.480469 C 146.53125 10.480469 148.394531 10.480469 150.359375 10.480469 C 150.441406 10.980469 150.527344 11.484375 150.621094 12.078125 C 153.304688 9.925781 156.277344 9.597656 159.402344 10.476562 C 163.011719 11.492188 165.445312 14.863281 165.796875 19.140625 C 166.164062 23.566406 164.128906 27.5625 160.480469 29.207031 C 157.429688 30.582031 154.382812 30.546875 151.523438 28.578125 C 151.421875 28.511719 151.304688 28.464844 151.035156 28.320312 C 151.035156 31.652344 151.035156 34.867188 151.035156 38.140625 C 148.808594 38.140625 146.726562 38.140625 144.589844 38.140625 C 144.589844 28.925781 144.589844 19.765625 144.589844 10.480469 Z M 150.742188 20.792969 C 150.769531 21.835938 151.207031 23.394531 152.890625 24.234375 C 154.414062 24.996094 156.011719 25.023438 157.394531 23.957031 C 159.125 22.621094 159.351562 20.714844 158.980469 18.722656 C 158.679688 17.113281 157.730469 15.992188 156.097656 15.523438 C 156.007812 15.5 155.910156 15.492188 155.816406 15.476562 C 152.867188 14.992188 150.746094 16.933594 150.742188 20.792969 Z M 150.742188 20.792969 "/>
</g>
<path style=" stroke:none;fill-rule:nonzero;fill:rgb(8.627451%,47.45098%,83.529412%);fill-opacity:1;" d="M 52.351562 38.140625 C 50.128906 38.140625 48.046875 38.140625 45.90625 38.140625 C 45.90625 28.929688 45.90625 19.765625 45.90625 10.511719 C 47.820312 10.511719 49.734375 10.511719 51.683594 10.511719 C 51.765625 11.011719 51.84375 11.5 51.941406 12.089844 C 54.421875 10.039062 57.222656 9.628906 60.167969 10.339844 C 64.054688 11.277344 66.199219 13.980469 66.90625 17.742188 C 67.640625 21.648438 66.890625 25.234375 63.699219 27.972656 C 60.621094 30.613281 56.222656 30.832031 52.832031 28.574219 C 52.734375 28.507812 52.617188 28.464844 52.351562 28.328125 C 52.351562 31.65625 52.351562 34.875 52.351562 38.140625 Z M 52.0625 20.074219 C 52.066406 21.847656 52.53125 23.417969 54.265625 24.261719 C 55.757812 24.988281 57.328125 25.003906 58.6875 23.980469 C 60.4375 22.65625 60.652344 20.742188 60.304688 18.757812 C 60.019531 17.148438 59.078125 16.015625 57.449219 15.53125 C 57.328125 15.496094 57.199219 15.488281 57.074219 15.46875 C 54.148438 15.03125 52.070312 16.945312 52.0625 20.074219 Z M 52.0625 20.074219 "/>
<path style=" stroke:none;fill-rule:nonzero;fill:rgb(8.627451%,47.45098%,83.529412%);fill-opacity:1;" d="M 40.421875 29.683594 C 38.449219 29.683594 36.582031 29.683594 34.636719 29.683594 C 34.539062 29.089844 34.445312 28.515625 34.328125 27.796875 C 32.785156 29.390625 30.945312 30.023438 28.871094 30.09375 C 23.871094 30.269531 19.964844 27.015625 19.273438 22.101562 C 18.9375 19.703125 19.15625 17.378906 20.179688 15.164062 C 22.824219 9.4375 30.597656 8.578125 34.457031 12.246094 C 34.527344 11.609375 34.582031 11.078125 34.644531 10.492188 C 36.570312 10.492188 38.460938 10.492188 40.421875 10.492188 C 40.421875 16.875 40.421875 23.226562 40.421875 29.683594 Z M 25.832031 20.136719 C 25.835938 22.390625 26.917969 24.066406 28.695312 24.566406 C 30.96875 25.207031 33.140625 24.089844 33.871094 21.90625 C 34.734375 19.304688 33.710938 16.496094 31.589844 15.683594 C 31.328125 15.582031 31.042969 15.515625 30.761719 15.472656 C 27.859375 15.042969 25.824219 16.972656 25.832031 20.136719 Z M 25.832031 20.136719 "/>
<path style=" stroke:none;fill-rule:nonzero;fill:rgb(94.117647%,34.117647%,23.137255%);fill-opacity:1;" d="M 85.429688 29.632812 C 85.34375 29.058594 85.257812 28.480469 85.183594 27.976562 C 84.15625 28.546875 83.234375 29.253906 82.1875 29.609375 C 76.570312 31.511719 70.832031 27.890625 70.085938 21.960938 C 69.632812 18.402344 70.265625 15.117188 72.992188 12.472656 C 76.210938 9.34375 82.195312 9.375 84.789062 11.953125 C 84.890625 12.054688 85.035156 12.113281 85.257812 12.25 C 85.332031 11.632812 85.398438 11.117188 85.46875 10.53125 C 87.386719 10.53125 89.273438 10.53125 91.214844 10.53125 C 91.214844 16.902344 91.214844 23.226562 91.214844 29.628906 C 89.273438 29.632812 87.386719 29.632812 85.429688 29.632812 Z M 84.929688 20.039062 C 84.925781 17.789062 84.003906 16.242188 82.3125 15.640625 C 80.007812 14.820312 77.695312 15.890625 76.914062 18.136719 C 75.960938 20.886719 77.050781 23.765625 79.332031 24.523438 C 79.453125 24.5625 79.574219 24.59375 79.699219 24.621094 C 82.671875 25.277344 84.9375 23.292969 84.929688 20.039062 Z M 84.929688 20.039062 "/>
<g clip-path="url(#clip26)" clip-rule="nonzero">
<path style=" stroke:none;fill-rule:nonzero;fill:rgb(8.627451%,47.45098%,83.529412%);fill-opacity:1;" d="M 16.410156 29.316406 C 15.902344 29.488281 15.402344 29.789062 14.894531 29.804688 C 12.96875 29.863281 11.007812 30.066406 9.125 29.78125 C 6.1875 29.335938 4.316406 27.199219 4.074219 24.179688 C 3.875 21.703125 3.949219 19.207031 3.90625 16.71875 C 3.898438 16.316406 3.902344 15.910156 3.902344 15.386719 C 2.632812 15.386719 1.472656 15.386719 0.3125 15.386719 C 0.261719 15.296875 0.210938 15.210938 0.160156 15.121094 C 3.464844 11.441406 6.769531 7.761719 10.070312 4.082031 C 10.164062 4.113281 10.253906 4.144531 10.347656 4.175781 C 10.347656 6.222656 10.347656 8.269531 10.347656 10.410156 C 12.144531 10.410156 13.785156 10.410156 15.5 10.410156 C 15.5 12.09375 15.5 13.683594 15.5 15.378906 C 13.820312 15.378906 12.179688 15.378906 10.445312 15.378906 C 10.421875 15.882812 10.386719 16.277344 10.390625 16.675781 C 10.414062 18.628906 10.386719 20.585938 10.496094 22.535156 C 10.582031 24.082031 11.289062 24.804688 12.835938 24.835938 C 14.015625 24.859375 15.199219 24.585938 16.414062 24.441406 C 16.410156 25.964844 16.410156 27.59375 16.410156 29.316406 Z M 16.410156 29.316406 "/>
</g>
<path style=" stroke:none;fill-rule:nonzero;fill:rgb(8.627451%,47.45098%,83.529412%);fill-opacity:1;" d="M 104.066406 4.226562 C 104.066406 6.234375 104.066406 8.246094 104.066406 10.402344 C 105.800781 10.402344 107.464844 10.402344 109.183594 10.402344 C 109.183594 12.109375 109.183594 13.671875 109.183594 15.355469 C 107.515625 15.355469 105.878906 15.355469 104.34375 15.355469 C 104.203125 15.523438 104.132812 15.570312 104.132812 15.617188 C 104.132812 17.917969 104.0625 20.222656 104.179688 22.515625 C 104.265625 24.164062 105.027344 24.855469 106.691406 24.859375 C 107.8125 24.859375 108.929688 24.570312 110.09375 24.40625 C 110.09375 25.949219 110.09375 27.578125 110.09375 29.308594 C 109.636719 29.46875 109.175781 29.683594 108.691406 29.785156 C 106.707031 30.207031 104.710938 30.25 102.730469 29.8125 C 99.878906 29.179688 98.019531 27.207031 97.777344 24.289062 C 97.5625 21.78125 97.628906 19.25 97.574219 16.730469 C 97.566406 16.324219 97.574219 15.917969 97.574219 15.382812 C 96.320312 15.382812 95.164062 15.382812 94.003906 15.382812 C 93.953125 15.292969 93.902344 15.203125 93.851562 15.113281 C 97.152344 11.429688 100.457031 7.75 103.761719 4.070312 C 103.863281 4.121094 103.964844 4.175781 104.066406 4.226562 Z M 104.066406 4.226562 "/>
<path style=" stroke:none;fill-rule:nonzero;fill:rgb(8.627451%,47.45098%,83.529412%);fill-opacity:1;" d="M 114.421875 29.65625 C 114.421875 23.246094 114.421875 16.921875 114.421875 10.515625 C 116.359375 10.515625 118.269531 10.515625 120.246094 10.515625 C 120.316406 11.117188 120.382812 11.703125 120.46875 12.492188 C 121.964844 10.589844 123.851562 9.964844 126.113281 10.0625 C 126.113281 11.941406 126.113281 13.722656 126.113281 15.507812 C 125.398438 15.445312 124.6875 15.3125 123.980469 15.335938 C 122.300781 15.390625 121.449219 16.101562 121.183594 17.730469 C 121 18.84375 120.90625 19.980469 120.890625 21.109375 C 120.847656 23.601562 120.875 26.089844 120.875 28.578125 C 120.875 28.917969 120.875 29.253906 120.875 29.65625 C 118.6875 29.65625 116.605469 29.65625 114.421875 29.65625 Z M 114.421875 29.65625 "/>
<path style=" stroke:none;fill-rule:nonzero;fill:rgb(8.627451%,47.45098%,83.529412%);fill-opacity:1;" d="M 131.285156 15.414062 C 130.316406 15.414062 129.441406 15.414062 128.496094 15.414062 C 128.496094 13.714844 128.496094 12.132812 128.496094 10.488281 C 131.574219 10.488281 134.609375 10.488281 137.726562 10.488281 C 137.742188 10.855469 137.769531 11.191406 137.769531 11.527344 C 137.773438 14.996094 137.773438 18.464844 137.773438 21.933594 C 137.773438 24.75 137.78125 24.757812 140.578125 25.035156 C 140.578125 26.496094 140.578125 27.96875 140.578125 29.582031 C 138.160156 30.054688 135.742188 30.308594 133.515625 28.914062 C 131.886719 27.894531 131.421875 26.167969 131.351562 24.394531 C 131.253906 21.78125 131.300781 19.164062 131.285156 16.546875 C 131.285156 16.203125 131.285156 15.863281 131.285156 15.414062 Z M 131.285156 15.414062 "/>
<path style=" stroke:none;fill-rule:nonzero;fill:rgb(8.627451%,47.45098%,83.529412%);fill-opacity:1;" d="M 138.226562 3.75 C 138.238281 5.96875 136.757812 7.503906 134.589844 7.523438 C 132.40625 7.542969 130.8125 5.957031 130.8125 3.753906 C 130.808594 1.648438 132.433594 0.0078125 134.53125 0 C 136.644531 -0.0078125 138.210938 1.585938 138.226562 3.75 Z M 138.226562 3.75 "/>
</g>
</svg>
