<?xml version="1.0" encoding="utf-8"?>
<!-- Generator: Adobe Illustrator 23.0.1, SVG Export Plug-In . SVG Version: 6.00 Build 0)  -->
<svg version="1.1" id="Layer_1" xmlns="http://www.w3.org/2000/svg" xmlns:xlink="http://www.w3.org/1999/xlink" x="0px" y="0px"
	 viewBox="0 0 160 48.093" style="enable-background:new 0 0 160 48.093;" xml:space="preserve">
<style type="text/css">
	.st0{clip-path:url(#SVGID_2_);}
	.st1{fill:#FFFFFF;}
	.st2{fill:#F0573B;}
</style>
<g>
	<defs>
		<rect id="SVGID_1_" y="0" width="160" height="48.083"/>
	</defs>
	<clipPath id="SVGID_2_">
		<use xlink:href="#SVGID_1_"  style="overflow:visible;"/>
	</clipPath>
	<g class="st0">
		<path class="st1" d="M44.181,40.7h2.909c1.293,0,2.141,0.722,2.141,1.823v0.01c0,0.768-0.581,1.48-1.348,1.591v0.02
			c1.035,0.106,1.707,0.818,1.707,1.777v0.01c0,1.278-0.934,2.055-2.484,2.055h-2.924V40.7z M45.312,41.624v2.181h1.252
			c1,0,1.54-0.404,1.54-1.136v-0.01c0-0.667-0.47-1.035-1.288-1.035H45.312z M45.312,44.679v2.383h1.56
			c1.015,0,1.56-0.409,1.56-1.187v-0.01c0-0.783-0.555-1.187-1.636-1.187H45.312z"/>
		<path class="st1" d="M50.473,40.7h1.091v7.287h-1.091V40.7z"/>
		<path class="st1" d="M52.447,45.331v-0.01c0-1.697,1.005-2.747,2.515-2.747c1.515,0,2.525,1.045,2.525,2.747v0.01
			c0,1.712-1,2.762-2.52,2.762C53.442,48.093,52.447,47.038,52.447,45.331z M56.371,45.331v-0.01c0-1.161-0.555-1.833-1.409-1.833
			c-0.838,0-1.399,0.672-1.399,1.833v0.01c0,1.177,0.555,1.848,1.409,1.848S56.371,46.502,56.371,45.331z"/>
		<path class="st1" d="M58.093,45.326v-0.005c0-1.682,0.99-2.747,2.505-2.747c1.368,0,2.197,0.879,2.288,1.878l0.005,0.035h-1.04
			l-0.01-0.04c-0.116-0.52-0.52-0.959-1.232-0.959c-0.848,0-1.399,0.707-1.399,1.843v0.005c0,1.161,0.561,1.843,1.404,1.843
			c0.672,0,1.101-0.389,1.232-0.964l0.005-0.04h1.05l-0.005,0.035c-0.116,1.065-1.005,1.884-2.282,1.884
			C59.062,48.093,58.093,47.027,58.093,45.326z"/>
		<path class="st1" d="M63.733,40.7h1.091v4.242h0.025l2.131-2.267h1.283l-2.181,2.293l2.267,3.02h-1.267l-1.803-2.363l-0.454,0.449
			v1.914h-1.091V40.7z"/>
		<path class="st1" d="M68.399,45.326v-0.005c0-1.682,0.99-2.747,2.505-2.747c1.368,0,2.197,0.879,2.287,1.878l0.005,0.035h-1.04
			l-0.01-0.04c-0.116-0.52-0.52-0.959-1.232-0.959c-0.848,0-1.399,0.707-1.399,1.843v0.005c0,1.161,0.561,1.843,1.404,1.843
			c0.672,0,1.101-0.389,1.232-0.964l0.005-0.04h1.05l-0.005,0.035c-0.116,1.065-1.005,1.884-2.282,1.884
			C69.369,48.093,68.399,47.027,68.399,45.326z"/>
		<path class="st1" d="M74.019,40.7h1.091v2.848h0.025c0.283-0.616,0.853-0.975,1.646-0.975c1.136,0,1.884,0.848,1.884,2.131v3.282
			h-1.091v-3.075c0-0.879-0.444-1.404-1.212-1.404c-0.752,0-1.252,0.576-1.252,1.404v3.075h-1.091V40.7z"/>
		<path class="st1" d="M79.508,46.477v-0.01c0-0.924,0.717-1.49,1.974-1.565l1.444-0.086v-0.399c0-0.586-0.379-0.939-1.055-0.939
			c-0.631,0-1.02,0.298-1.111,0.722l-0.01,0.045h-1.03l0.005-0.056c0.076-0.914,0.869-1.616,2.176-1.616
			c1.298,0,2.121,0.687,2.121,1.752v3.661h-1.096v-0.838h-0.02c-0.308,0.571-0.924,0.934-1.626,0.934
			C80.22,48.083,79.508,47.431,79.508,46.477z M81.579,47.209c0.768,0,1.348-0.52,1.348-1.212v-0.414l-1.298,0.081
			c-0.656,0.04-1.02,0.328-1.02,0.778v0.01C80.609,46.916,80.993,47.209,81.579,47.209z"/>
		<path class="st1" d="M85.033,41.23c0-0.348,0.283-0.631,0.636-0.631c0.359,0,0.636,0.283,0.636,0.631
			c0,0.343-0.278,0.626-0.636,0.626C85.315,41.857,85.033,41.574,85.033,41.23z M85.124,42.675h1.091v5.312h-1.091V42.675z"/>
		<path class="st1" d="M87.34,42.675h1.091v0.803h0.025c0.278-0.54,0.823-0.904,1.626-0.904c1.166,0,1.838,0.752,1.838,1.974v3.439
			h-1.096v-3.232c0-0.798-0.374-1.247-1.131-1.247c-0.768,0-1.262,0.555-1.262,1.384v3.095H87.34V42.675z"/>
		<path class="st1" d="M97.005,41.675h-2.232V40.7h5.59v0.975h-2.227v6.312h-1.131V41.675z"/>
		<path class="st1" d="M100.161,42.675h1.091v0.909h0.025c0.172-0.621,0.616-1.01,1.222-1.01c0.157,0,0.293,0.025,0.379,0.04v1.015
			c-0.086-0.035-0.278-0.061-0.49-0.061c-0.702,0-1.136,0.46-1.136,1.252v3.166h-1.091V42.675z"/>
		<path class="st1" d="M103.232,46.477v-0.01c0-0.924,0.717-1.49,1.974-1.565l1.444-0.086v-0.399c0-0.586-0.379-0.939-1.055-0.939
			c-0.631,0-1.02,0.298-1.111,0.722l-0.01,0.045h-1.03l0.005-0.056c0.076-0.914,0.869-1.616,2.176-1.616
			c1.298,0,2.121,0.687,2.121,1.752v3.661h-1.096v-0.838h-0.02c-0.308,0.571-0.924,0.934-1.626,0.934
			C103.944,48.083,103.232,47.431,103.232,46.477z M105.302,47.209c0.768,0,1.348-0.52,1.348-1.212v-0.414l-1.298,0.081
			c-0.656,0.04-1.02,0.328-1.02,0.778v0.01C104.332,46.916,104.716,47.209,105.302,47.209z"/>
		<path class="st1" d="M108.337,42.675h1.161l1.333,4.247h0.025l1.333-4.247h1.136l-1.904,5.312h-1.172L108.337,42.675z"/>
		<path class="st1" d="M113.518,45.351v-0.005c0-1.661,0.959-2.772,2.449-2.772s2.404,1.071,2.404,2.666v0.369h-3.762
			c0.02,1.005,0.571,1.591,1.439,1.591c0.646,0,1.076-0.333,1.212-0.732l0.015-0.04h1.035l-0.01,0.056
			c-0.172,0.843-0.99,1.611-2.277,1.611C114.462,48.093,113.518,47.027,113.518,45.351z M114.624,44.836h2.666
			c-0.091-0.919-0.606-1.368-1.318-1.368C115.265,43.467,114.72,43.947,114.624,44.836z"/>
		<path class="st1" d="M119.254,40.7h1.091v7.287h-1.091V40.7z"/>
		<path class="st1" d="M123.693,40.7h2.712c1.429,0,2.419,0.959,2.419,2.388v0.01c0,1.424-0.99,2.399-2.419,2.399h-1.581v2.489
			h-1.131V40.7z M124.824,41.655v2.893h1.298c0.985,0,1.55-0.53,1.55-1.444v-0.01c0-0.909-0.566-1.439-1.55-1.439H124.824z"/>
		<path class="st1" d="M129.722,40.7h1.091v7.287h-1.091V40.7z"/>
		<path class="st1" d="M131.722,46.477v-0.01c0-0.924,0.717-1.49,1.974-1.565l1.444-0.086v-0.399c0-0.586-0.379-0.939-1.055-0.939
			c-0.631,0-1.02,0.298-1.111,0.722l-0.01,0.045h-1.03l0.005-0.056c0.076-0.914,0.869-1.616,2.176-1.616
			c1.298,0,2.121,0.687,2.121,1.752v3.661h-1.096v-0.838h-0.02c-0.308,0.571-0.924,0.934-1.626,0.934
			C132.434,48.083,131.722,47.431,131.722,46.477z M133.792,47.209c0.768,0,1.348-0.52,1.348-1.212v-0.414l-1.298,0.081
			c-0.656,0.04-1.02,0.328-1.02,0.778v0.01C132.823,46.916,133.206,47.209,133.792,47.209z"/>
		<path class="st1" d="M137.6,46.588v-3.045h-0.762v-0.869h0.762v-1.384h1.116v1.384h0.995v0.869h-0.995v2.979
			c0,0.54,0.242,0.702,0.702,0.702c0.116,0,0.212-0.01,0.293-0.02v0.843c-0.126,0.02-0.333,0.045-0.555,0.045
			C138.105,48.093,137.6,47.649,137.6,46.588z"/>
		<path class="st1" d="M140.927,43.543h-0.732v-0.869h0.732v-0.566c0-1.03,0.485-1.515,1.565-1.515c0.222,0,0.465,0.02,0.611,0.045
			v0.808c-0.106-0.015-0.242-0.025-0.379-0.025c-0.49,0-0.722,0.237-0.722,0.707v0.545h1.081v0.869h-1.06v4.444h-1.096V43.543z"/>
		<path class="st1" d="M143.245,45.331v-0.01c0-1.697,1.005-2.747,2.515-2.747c1.515,0,2.525,1.045,2.525,2.747v0.01
			c0,1.712-1,2.762-2.52,2.762C144.24,48.093,143.245,47.038,143.245,45.331z M147.169,45.331v-0.01
			c0-1.161-0.555-1.833-1.409-1.833c-0.838,0-1.399,0.672-1.399,1.833v0.01c0,1.177,0.555,1.848,1.409,1.848
			S147.169,46.502,147.169,45.331z"/>
		<path class="st1" d="M149.128,42.675h1.091v0.909h0.025c0.172-0.621,0.616-1.01,1.222-1.01c0.157,0,0.293,0.025,0.379,0.04v1.015
			c-0.086-0.035-0.278-0.061-0.49-0.061c-0.702,0-1.136,0.46-1.136,1.252v3.166h-1.091V42.675z"/>
		<path class="st1" d="M152.521,42.675h1.091v0.823h0.025c0.227-0.555,0.768-0.924,1.464-0.924c0.732,0,1.267,0.379,1.48,1.045
			h0.025c0.273-0.646,0.899-1.045,1.656-1.045c1.05,0,1.737,0.697,1.737,1.762v3.651h-1.096v-3.388c0-0.692-0.369-1.091-1.015-1.091
			s-1.096,0.485-1.096,1.156v3.323h-1.071v-3.469c0-0.616-0.389-1.01-1.005-1.01c-0.646,0-1.106,0.51-1.106,1.197v3.282h-1.091
			V42.675z"/>
	</g>
	<g class="st0">
		<path class="st1" d="M139.478,10.081c1.875,0,3.675,0,5.573,0c0.08,0.481,0.16,0.966,0.254,1.535
			c2.59-2.07,5.461-2.386,8.477-1.54c3.489,0.979,5.836,4.221,6.177,8.334c0.353,4.256-1.61,8.101-5.135,9.684
			c-2.946,1.323-5.888,1.286-8.651-0.604c-0.097-0.066-0.209-0.111-0.471-0.248c0,3.202,0,6.296,0,9.443c-2.151,0-4.158,0-6.225,0
			C139.478,27.823,139.478,19.01,139.478,10.081z M145.422,19.999c0.025,1.005,0.448,2.503,2.073,3.312
			c1.47,0.732,3.015,0.758,4.349-0.267c1.671-1.284,1.889-3.119,1.531-5.034c-0.29-1.549-1.205-2.626-2.783-3.078
			c-0.087-0.025-0.181-0.032-0.271-0.047C147.474,14.422,145.424,16.286,145.422,19.999z"/>
		<path class="st1" d="M50.402,36.686c-2.146,0-4.156,0-6.223,0c0-8.86,0-17.676,0-26.574c1.846,0,3.696,0,5.578,0
			c0.079,0.48,0.156,0.951,0.25,1.518c2.396-1.974,5.1-2.368,7.943-1.684c3.753,0.903,5.825,3.5,6.507,7.118
			c0.709,3.76-0.016,7.207-3.097,9.842c-2.97,2.539-7.221,2.749-10.493,0.578c-0.096-0.064-0.207-0.106-0.464-0.236
			C50.402,30.449,50.402,33.543,50.402,36.686z M50.123,19.309c0.004,1.706,0.453,3.217,2.126,4.027
			c1.444,0.699,2.958,0.716,4.271-0.272c1.692-1.273,1.897-3.114,1.561-5.023c-0.272-1.548-1.184-2.636-2.757-3.101
			c-0.116-0.034-0.241-0.043-0.362-0.061C52.139,14.459,50.13,16.298,50.123,19.309z"/>
		<path class="st1" d="M38.882,28.55c-1.904,0-3.708,0-5.589,0c-0.093-0.571-0.182-1.122-0.295-1.815
			c-1.493,1.533-3.269,2.142-5.271,2.212c-4.828,0.167-8.6-2.962-9.269-7.69c-0.326-2.306-0.113-4.541,0.875-6.672
			c2.553-5.508,10.061-6.335,13.788-2.805c0.066-0.615,0.12-1.125,0.18-1.689c1.86,0,3.687,0,5.581,0
			C38.882,16.232,38.882,22.34,38.882,28.55z M24.792,19.369c0.005,2.167,1.05,3.778,2.764,4.26c2.197,0.617,4.295-0.457,4.998-2.56
			c0.836-2.502-0.153-5.202-2.202-5.984c-0.254-0.097-0.527-0.162-0.798-0.202C26.749,14.471,24.785,16.324,24.792,19.369z"/>
		<path class="st2" d="M82.347,28.502c-0.083-0.553-0.166-1.107-0.238-1.594c-0.991,0.549-1.884,1.23-2.894,1.571
			c-5.424,1.832-10.965-1.654-11.688-7.354c-0.435-3.426,0.177-6.584,2.807-9.128c3.109-3.008,8.89-2.981,11.392-0.499
			c0.098,0.097,0.238,0.152,0.453,0.284c0.074-0.593,0.136-1.088,0.207-1.651c1.851,0,3.671,0,5.547,0c0,6.126,0,12.21,0,18.369
			C86.059,28.502,84.237,28.502,82.347,28.502z M81.865,19.276c-0.005-2.165-0.895-3.654-2.529-4.233
			c-2.226-0.788-4.459,0.241-5.213,2.403c-0.922,2.644,0.13,5.414,2.334,6.142c0.116,0.038,0.234,0.069,0.354,0.094
			C79.685,24.312,81.871,22.404,81.865,19.276z"/>
		<path class="st1" d="M15.694,28.197c-0.493,0.166-0.976,0.457-1.466,0.472c-1.858,0.057-3.753,0.25-5.57-0.024
			c-2.838-0.427-4.643-2.484-4.878-5.386c-0.193-2.382-0.121-4.784-0.164-7.178c-0.007-0.388-0.001-0.776-0.001-1.282
			c-1.228,0-2.348,0-3.468,0C0.098,14.715,0.049,14.631,0,14.546c3.19-3.54,6.381-7.08,9.571-10.62
			c0.089,0.03,0.178,0.061,0.267,0.091c0,1.969,0,3.937,0,5.996c1.734,0,3.318,0,4.976,0c0,1.621,0,3.148,0,4.781
			c-1.622,0-3.205,0-4.882,0c-0.022,0.482-0.058,0.863-0.053,1.245c0.023,1.878-0.002,3.76,0.103,5.635
			c0.084,1.491,0.766,2.186,2.26,2.216c1.137,0.023,2.28-0.241,3.453-0.381C15.694,24.975,15.694,26.542,15.694,28.197z"/>
		<path class="st1" d="M100.346,4.064c0,1.933,0,3.866,0,5.941c1.675,0,3.279,0,4.941,0c0,1.643,0,3.144,0,4.764
			c-1.613,0-3.193,0-4.673,0c-0.137,0.163-0.207,0.208-0.207,0.254c0.003,2.212-0.065,4.427,0.047,6.634
			c0.081,1.586,0.818,2.252,2.426,2.254c1.081,0.002,2.162-0.277,3.284-0.436c0,1.485,0,3.051,0,4.717
			c-0.441,0.153-0.885,0.36-1.353,0.459c-1.915,0.404-3.846,0.447-5.758,0.024c-2.752-0.609-4.548-2.504-4.784-5.311
			c-0.204-2.413-0.141-4.847-0.194-7.273c-0.009-0.39-0.001-0.78-0.001-1.294c-1.21,0-2.328,0-3.447,0
			c-0.049-0.087-0.099-0.175-0.148-0.262c3.19-3.54,6.381-7.08,9.571-10.62C100.148,3.965,100.247,4.015,100.346,4.064z"/>
		<path class="st1" d="M110.346,28.525c0-6.167,0-12.249,0-18.412c1.871,0,3.716,0,5.623,0c0.067,0.581,0.131,1.144,0.217,1.902
			c1.442-1.828,3.264-2.429,5.451-2.336c0,1.807,0,3.521,0,5.238c-0.693-0.06-1.38-0.187-2.062-0.165
			c-1.623,0.053-2.443,0.734-2.702,2.301c-0.177,1.072-0.265,2.167-0.283,3.253c-0.041,2.394-0.013,4.788-0.013,7.182
			c0,0.326,0,0.651,0,1.036C114.465,28.525,112.455,28.525,110.346,28.525z"/>
		<path class="st1" d="M126.631,14.826c-0.935,0-1.781,0-2.695,0c0-1.633,0-3.157,0-4.738c2.973,0,5.903,0,8.914,0
			c0.016,0.354,0.043,0.677,0.043,1c0.003,3.336,0.002,6.672,0.002,10.009c0,2.709,0.008,2.718,2.708,2.982c0,1.407,0,2.822,0,4.376
			c-2.335,0.452-4.67,0.699-6.819-0.643c-1.572-0.982-2.023-2.642-2.088-4.347c-0.097-2.514-0.051-5.033-0.065-7.55
			C126.629,15.586,126.631,15.26,126.631,14.826z"/>
		<path class="st1" d="M133.332,3.608c0.014,2.132-1.415,3.609-3.51,3.628c-2.11,0.018-3.647-1.508-3.65-3.624
			C126.17,1.586,127.74,0.008,129.765,0C131.804-0.007,133.319,1.524,133.332,3.608z"/>
	</g>
</g>
</svg>
