<svg width="5" height="29" viewBox="0 0 5 29" fill="none" xmlns="http://www.w3.org/2000/svg">
<circle cx="2.5" cy="2.5" r="2.5" fill="white"/>
<circle cx="2.5" cy="2.5" r="2" stroke="#023047" stroke-opacity="0.7"/>
<path d="M3 7C3 6.72386 2.77614 6.5 2.5 6.5C2.22386 6.5 2 6.72386 2 7L3 7ZM2 22C2 22.2761 2.22386 22.5 2.5 22.5C2.77614 22.5 3 22.2761 3 22L2 22ZM2 8.25C2 8.52614 2.22386 8.75 2.5 8.75C2.77614 8.75 3 8.52614 3 8.25L2 8.25ZM3 10.75C3 10.4739 2.77614 10.25 2.5 10.25C2.22386 10.25 2 10.4739 2 10.75L3 10.75ZM2 13.25C2 13.5261 2.22386 13.75 2.5 13.75C2.77614 13.75 3 13.5261 3 13.25L2 13.25ZM3 15.75C3 15.4739 2.77614 15.25 2.5 15.25C2.22386 15.25 2 15.4739 2 15.75L3 15.75ZM2 18.25C2 18.5261 2.22386 18.75 2.5 18.75C2.77614 18.75 3 18.5261 3 18.25L2 18.25ZM3 20.75C3 20.4739 2.77614 20.25 2.5 20.25C2.22386 20.25 2 20.4739 2 20.75L3 20.75ZM2 7L2 8.25L3 8.25L3 7L2 7ZM2 10.75L2 13.25L3 13.25L3 10.75L2 10.75ZM2 15.75L2 18.25L3 18.25L3 15.75L2 15.75ZM2 20.75L2 22L3 22L3 20.75L2 20.75Z" fill="#023047" fill-opacity="0.5"/>
<circle cx="2.5" cy="26.5" r="2.5" fill="white"/>
<circle cx="2.5" cy="26.5" r="2" stroke="#023047" stroke-opacity="0.9"/>
</svg>
